<?xml version="1.0" encoding="utf-8"?>
<svg xmlns="http://www.w3.org/2000/svg" xmlns:xlink="http://www.w3.org/1999/xlink" width="1200" height="800" viewBox="0 0 4800 3200">
<defs>
  <clipPath id="clip810">
    <rect x="0" y="0" width="4800" height="3200"/>
  </clipPath>
</defs>
<path clip-path="url(#clip810)" d="M0 3200 L4800 3200 L4800 0 L0 0  Z" fill="#ffffff" fill-rule="evenodd" fill-opacity="1"/>
<defs>
  <clipPath id="clip811">
    <rect x="960" y="0" width="3361" height="3200"/>
  </clipPath>
</defs>
<path clip-path="url(#clip810)" d="M916.528 2340.44 L4611.02 2340.44 L4611.02 610.253 L916.528 610.253  Z" fill="#ffffff" fill-rule="evenodd" fill-opacity="1"/>
<defs>
  <clipPath id="clip812">
    <rect x="916" y="610" width="3695" height="1731"/>
  </clipPath>
</defs>
<polyline clip-path="url(#clip812)" style="stroke:#666666; stroke-linecap:round; stroke-linejoin:round; stroke-width:6; stroke-opacity:0.6; fill:none" points="1021.09,2340.44 1021.09,610.253 "/>
<polyline clip-path="url(#clip812)" style="stroke:#666666; stroke-linecap:round; stroke-linejoin:round; stroke-width:6; stroke-opacity:0.6; fill:none" points="1792.97,2340.44 1792.97,610.253 "/>
<polyline clip-path="url(#clip812)" style="stroke:#666666; stroke-linecap:round; stroke-linejoin:round; stroke-width:6; stroke-opacity:0.6; fill:none" points="2564.84,2340.44 2564.84,610.253 "/>
<polyline clip-path="url(#clip812)" style="stroke:#666666; stroke-linecap:round; stroke-linejoin:round; stroke-width:6; stroke-opacity:0.6; fill:none" points="3336.72,2340.44 3336.72,610.253 "/>
<polyline clip-path="url(#clip812)" style="stroke:#666666; stroke-linecap:round; stroke-linejoin:round; stroke-width:6; stroke-opacity:0.6; fill:none" points="4108.6,2340.44 4108.6,610.253 "/>
<polyline clip-path="url(#clip812)" style="stroke:#666666; stroke-linecap:round; stroke-linejoin:round; stroke-width:6; stroke-opacity:0.6; fill:none" points="916.528,2217.79 4611.02,2217.79 "/>
<polyline clip-path="url(#clip812)" style="stroke:#666666; stroke-linecap:round; stroke-linejoin:round; stroke-width:6; stroke-opacity:0.6; fill:none" points="916.528,1957.01 4611.02,1957.01 "/>
<polyline clip-path="url(#clip812)" style="stroke:#666666; stroke-linecap:round; stroke-linejoin:round; stroke-width:6; stroke-opacity:0.6; fill:none" points="916.528,1696.23 4611.02,1696.23 "/>
<polyline clip-path="url(#clip812)" style="stroke:#666666; stroke-linecap:round; stroke-linejoin:round; stroke-width:6; stroke-opacity:0.6; fill:none" points="916.528,1435.45 4611.02,1435.45 "/>
<polyline clip-path="url(#clip812)" style="stroke:#666666; stroke-linecap:round; stroke-linejoin:round; stroke-width:6; stroke-opacity:0.6; fill:none" points="916.528,1174.67 4611.02,1174.67 "/>
<polyline clip-path="url(#clip812)" style="stroke:#666666; stroke-linecap:round; stroke-linejoin:round; stroke-width:6; stroke-opacity:0.6; fill:none" points="916.528,913.895 4611.02,913.895 "/>
<polyline clip-path="url(#clip812)" style="stroke:#666666; stroke-linecap:round; stroke-linejoin:round; stroke-width:6; stroke-opacity:0.6; fill:none" points="916.528,653.115 4611.02,653.115 "/>
<polyline clip-path="url(#clip810)" style="stroke:#000000; stroke-linecap:round; stroke-linejoin:round; stroke-width:4; stroke-opacity:1; fill:none" points="916.528,2340.44 4611.02,2340.44 "/>
<polyline clip-path="url(#clip810)" style="stroke:#000000; stroke-linecap:round; stroke-linejoin:round; stroke-width:4; stroke-opacity:1; fill:none" points="1021.09,2340.44 1021.09,2321.54 "/>
<polyline clip-path="url(#clip810)" style="stroke:#000000; stroke-linecap:round; stroke-linejoin:round; stroke-width:4; stroke-opacity:1; fill:none" points="1792.97,2340.44 1792.97,2321.54 "/>
<polyline clip-path="url(#clip810)" style="stroke:#000000; stroke-linecap:round; stroke-linejoin:round; stroke-width:4; stroke-opacity:1; fill:none" points="2564.84,2340.44 2564.84,2321.54 "/>
<polyline clip-path="url(#clip810)" style="stroke:#000000; stroke-linecap:round; stroke-linejoin:round; stroke-width:4; stroke-opacity:1; fill:none" points="3336.72,2340.44 3336.72,2321.54 "/>
<polyline clip-path="url(#clip810)" style="stroke:#000000; stroke-linecap:round; stroke-linejoin:round; stroke-width:4; stroke-opacity:1; fill:none" points="4108.6,2340.44 4108.6,2321.54 "/>
<path clip-path="url(#clip810)" d="M882.786 2468.78 L882.786 2464.04 Q901.017 2464.04 910.429 2454.33 Q913.023 2454.33 913.467 2454.92 Q913.912 2455.52 913.912 2458.26 L913.912 2543.41 Q913.912 2547.93 916.135 2549.34 Q918.359 2550.75 928.067 2550.75 L932.884 2550.75 L932.884 2555.42 Q927.548 2554.97 908.28 2554.97 Q889.011 2554.97 883.749 2555.42 L883.749 2550.75 L888.567 2550.75 Q898.127 2550.75 900.424 2549.42 Q902.722 2548.01 902.722 2543.41 L902.722 2464.78 Q894.792 2468.78 882.786 2468.78 Z" fill="#000000" fill-rule="nonzero" fill-opacity="1" /><path clip-path="url(#clip810)" d="M951.115 2506.88 Q951.115 2484.57 956.748 2472.41 Q964.603 2454.33 983.131 2454.33 Q987.059 2454.33 991.135 2455.44 Q995.285 2456.48 1000.47 2460.56 Q1005.73 2464.63 1008.92 2471.3 Q1015 2484.2 1015 2506.88 Q1015 2529.03 1009.37 2541.11 Q1001.14 2558.75 982.983 2558.75 Q976.165 2558.75 969.198 2555.27 Q962.306 2551.79 957.934 2543.41 Q951.115 2530.89 951.115 2506.88 M963.714 2505.02 Q963.714 2527.92 965.345 2537.04 Q967.197 2546.9 972.237 2551.19 Q977.35 2555.42 982.983 2555.42 Q989.06 2555.42 994.099 2550.9 Q999.213 2546.3 1000.77 2536.45 Q1002.47 2526.74 1002.4 2505.02 Q1002.4 2483.9 1000.92 2475.45 Q998.916 2465.6 993.58 2461.67 Q988.319 2457.67 982.983 2457.67 Q980.982 2457.67 978.833 2458.26 Q976.757 2458.85 973.719 2460.56 Q970.68 2462.26 968.309 2466.49 Q966.012 2470.71 964.9 2477.08 Q963.714 2485.31 963.714 2505.02 Z" fill="#000000" fill-rule="nonzero" fill-opacity="1" /><path clip-path="url(#clip810)" d="M1096.41 2440.61 Q1097.13 2441.33 1097.13 2442.36 Q1097.13 2443.38 1096.41 2444.1 Q1095.69 2444.83 1094.66 2444.83 L1017.47 2444.83 Q1016.44 2444.83 1015.72 2444.1 Q1015 2443.38 1015 2442.36 Q1015 2441.33 1015.72 2440.61 Q1016.44 2439.89 1017.47 2439.89 L1094.66 2439.89 Q1095.69 2439.89 1096.41 2440.61 Z" fill="#000000" fill-rule="nonzero" fill-opacity="1" /><path clip-path="url(#clip810)" d="M1110.14 2473.19 Q1110.14 2470.96 1110.32 2470.3 Q1110.56 2469.63 1111.52 2468.61 L1135.19 2442.24 Q1148.13 2427.66 1148.13 2414.96 Q1148.13 2406.71 1143.8 2400.81 Q1139.52 2394.91 1131.63 2394.91 Q1126.21 2394.91 1121.64 2398.22 Q1117.06 2401.53 1114.95 2407.43 Q1115.32 2407.31 1116.58 2407.31 Q1119.65 2407.31 1121.34 2409.24 Q1123.08 2411.17 1123.08 2413.76 Q1123.08 2417.07 1120.92 2418.69 Q1118.81 2420.26 1116.7 2420.26 Q1115.86 2420.26 1114.71 2420.08 Q1113.63 2419.9 1111.88 2418.21 Q1110.14 2416.46 1110.14 2413.39 Q1110.14 2404.78 1116.64 2397.92 Q1123.2 2391.05 1133.2 2391.05 Q1144.52 2391.05 1151.93 2397.8 Q1159.39 2404.48 1159.39 2414.96 Q1159.39 2418.63 1158.25 2422 Q1157.16 2425.32 1155.66 2427.91 Q1154.21 2430.49 1150.24 2434.65 Q1146.27 2438.8 1143.07 2441.75 Q1139.88 2444.71 1132.72 2450.97 L1119.65 2463.67 L1141.87 2463.67 Q1152.71 2463.67 1153.55 2462.71 Q1154.76 2460.96 1156.26 2451.75 L1159.39 2451.75 L1155.9 2473.19 L1110.14 2473.19 Z" fill="#000000" fill-rule="nonzero" fill-opacity="1" /><path clip-path="url(#clip810)" d="M1656.53 2468.78 L1656.53 2464.04 Q1674.76 2464.04 1684.17 2454.33 Q1686.77 2454.33 1687.21 2454.92 Q1687.66 2455.52 1687.66 2458.26 L1687.66 2543.41 Q1687.66 2547.93 1689.88 2549.34 Q1692.1 2550.75 1701.81 2550.75 L1706.63 2550.75 L1706.63 2555.42 Q1701.29 2554.97 1682.02 2554.97 Q1662.76 2554.97 1657.49 2555.42 L1657.49 2550.75 L1662.31 2550.75 Q1671.87 2550.75 1674.17 2549.42 Q1676.47 2548.01 1676.47 2543.41 L1676.47 2464.78 Q1668.54 2468.78 1656.53 2468.78 Z" fill="#000000" fill-rule="nonzero" fill-opacity="1" /><path clip-path="url(#clip810)" d="M1724.86 2506.88 Q1724.86 2484.57 1730.49 2472.41 Q1738.35 2454.33 1756.87 2454.33 Q1760.8 2454.33 1764.88 2455.44 Q1769.03 2456.48 1774.22 2460.56 Q1779.48 2464.63 1782.67 2471.3 Q1788.74 2484.2 1788.74 2506.88 Q1788.74 2529.03 1783.11 2541.11 Q1774.88 2558.75 1756.73 2558.75 Q1749.91 2558.75 1742.94 2555.27 Q1736.05 2551.79 1731.68 2543.41 Q1724.86 2530.89 1724.86 2506.88 M1737.46 2505.02 Q1737.46 2527.92 1739.09 2537.04 Q1740.94 2546.9 1745.98 2551.19 Q1751.09 2555.42 1756.73 2555.42 Q1762.8 2555.42 1767.84 2550.9 Q1772.96 2546.3 1774.51 2536.45 Q1776.22 2526.74 1776.14 2505.02 Q1776.14 2483.9 1774.66 2475.45 Q1772.66 2465.6 1767.32 2461.67 Q1762.06 2457.67 1756.73 2457.67 Q1754.73 2457.67 1752.58 2458.26 Q1750.5 2458.85 1747.46 2460.56 Q1744.42 2462.26 1742.05 2466.49 Q1739.76 2470.71 1738.64 2477.08 Q1737.46 2485.31 1737.46 2505.02 Z" fill="#000000" fill-rule="nonzero" fill-opacity="1" /><path clip-path="url(#clip810)" d="M1870.15 2440.61 Q1870.87 2441.33 1870.87 2442.36 Q1870.87 2443.38 1870.15 2444.1 Q1869.43 2444.83 1868.41 2444.83 L1791.21 2444.83 Q1790.19 2444.83 1789.46 2444.1 Q1788.74 2443.38 1788.74 2442.36 Q1788.74 2441.33 1789.46 2440.61 Q1790.19 2439.89 1791.21 2439.89 L1868.41 2439.89 Q1869.43 2439.89 1870.15 2440.61 Z" fill="#000000" fill-rule="nonzero" fill-opacity="1" /><path clip-path="url(#clip810)" d="M1888.7 2402.8 L1888.7 2398.94 Q1903.51 2398.94 1911.16 2391.05 Q1913.27 2391.05 1913.63 2391.54 Q1913.99 2392.02 1913.99 2394.25 L1913.99 2463.43 Q1913.99 2467.11 1915.79 2468.25 Q1917.6 2469.39 1925.49 2469.39 L1929.4 2469.39 L1929.4 2473.19 Q1925.07 2472.83 1909.41 2472.83 Q1893.76 2472.83 1889.48 2473.19 L1889.48 2469.39 L1893.39 2469.39 Q1901.16 2469.39 1903.03 2468.31 Q1904.9 2467.17 1904.9 2463.43 L1904.9 2399.54 Q1898.45 2402.8 1888.7 2402.8 Z" fill="#000000" fill-rule="nonzero" fill-opacity="1" /><path clip-path="url(#clip810)" d="M2472.79 2468.78 L2472.79 2464.04 Q2491.02 2464.04 2500.43 2454.33 Q2503.02 2454.33 2503.47 2454.92 Q2503.91 2455.52 2503.91 2458.26 L2503.91 2543.41 Q2503.91 2547.93 2506.13 2549.34 Q2508.36 2550.75 2518.07 2550.75 L2522.88 2550.75 L2522.88 2555.42 Q2517.55 2554.97 2498.28 2554.97 Q2479.01 2554.97 2473.75 2555.42 L2473.75 2550.75 L2478.57 2550.75 Q2488.13 2550.75 2490.42 2549.42 Q2492.72 2548.01 2492.72 2543.41 L2492.72 2464.78 Q2484.79 2468.78 2472.79 2468.78 Z" fill="#000000" fill-rule="nonzero" fill-opacity="1" /><path clip-path="url(#clip810)" d="M2541.11 2506.88 Q2541.11 2484.57 2546.75 2472.41 Q2554.6 2454.33 2573.13 2454.33 Q2577.06 2454.33 2581.13 2455.44 Q2585.28 2456.48 2590.47 2460.56 Q2595.73 2464.63 2598.92 2471.3 Q2605 2484.2 2605 2506.88 Q2605 2529.03 2599.37 2541.11 Q2591.14 2558.75 2572.98 2558.75 Q2566.16 2558.75 2559.2 2555.27 Q2552.31 2551.79 2547.93 2543.41 Q2541.11 2530.89 2541.11 2506.88 M2553.71 2505.02 Q2553.71 2527.92 2555.34 2537.04 Q2557.2 2546.9 2562.24 2551.19 Q2567.35 2555.42 2572.98 2555.42 Q2579.06 2555.42 2584.1 2550.9 Q2589.21 2546.3 2590.77 2536.45 Q2592.47 2526.74 2592.4 2505.02 Q2592.4 2483.9 2590.92 2475.45 Q2588.92 2465.6 2583.58 2461.67 Q2578.32 2457.67 2572.98 2457.67 Q2570.98 2457.67 2568.83 2458.26 Q2566.76 2458.85 2563.72 2460.56 Q2560.68 2462.26 2558.31 2466.49 Q2556.01 2470.71 2554.9 2477.08 Q2553.71 2485.31 2553.71 2505.02 Z" fill="#000000" fill-rule="nonzero" fill-opacity="1" /><path clip-path="url(#clip810)" d="M2605 2433.75 Q2605 2415.62 2609.57 2405.75 Q2615.96 2391.05 2631.01 2391.05 Q2634.2 2391.05 2637.51 2391.96 Q2640.89 2392.8 2645.1 2396.11 Q2649.38 2399.42 2651.96 2404.84 Q2656.9 2415.32 2656.9 2433.75 Q2656.9 2451.75 2652.33 2461.57 Q2645.64 2475.9 2630.89 2475.9 Q2625.35 2475.9 2619.69 2473.07 Q2614.09 2470.24 2610.54 2463.43 Q2605 2453.26 2605 2433.75 M2615.23 2432.24 Q2615.23 2450.85 2616.56 2458.25 Q2618.06 2466.26 2622.16 2469.75 Q2626.31 2473.19 2630.89 2473.19 Q2635.83 2473.19 2639.92 2469.51 Q2644.08 2465.78 2645.34 2457.77 Q2646.73 2449.88 2646.67 2432.24 Q2646.67 2415.08 2645.46 2408.22 Q2643.84 2400.21 2639.5 2397.02 Q2635.23 2393.76 2630.89 2393.76 Q2629.26 2393.76 2627.52 2394.25 Q2625.83 2394.73 2623.36 2396.11 Q2620.89 2397.5 2618.97 2400.93 Q2617.1 2404.36 2616.2 2409.54 Q2615.23 2416.22 2615.23 2432.24 Z" fill="#000000" fill-rule="nonzero" fill-opacity="1" /><path clip-path="url(#clip810)" d="M3250.26 2468.78 L3250.26 2464.04 Q3268.49 2464.04 3277.91 2454.33 Q3280.5 2454.33 3280.94 2454.92 Q3281.39 2455.52 3281.39 2458.26 L3281.39 2543.41 Q3281.39 2547.93 3283.61 2549.34 Q3285.84 2550.75 3295.54 2550.75 L3300.36 2550.75 L3300.36 2555.42 Q3295.02 2554.97 3275.76 2554.97 Q3256.49 2554.97 3251.23 2555.42 L3251.23 2550.75 L3256.04 2550.75 Q3265.6 2550.75 3267.9 2549.42 Q3270.2 2548.01 3270.2 2543.41 L3270.2 2464.78 Q3262.27 2468.78 3250.26 2468.78 Z" fill="#000000" fill-rule="nonzero" fill-opacity="1" /><path clip-path="url(#clip810)" d="M3318.59 2506.88 Q3318.59 2484.57 3324.22 2472.41 Q3332.08 2454.33 3350.61 2454.33 Q3354.54 2454.33 3358.61 2455.44 Q3362.76 2456.48 3367.95 2460.56 Q3373.21 2464.63 3376.4 2471.3 Q3382.47 2484.2 3382.47 2506.88 Q3382.47 2529.03 3376.84 2541.11 Q3368.62 2558.75 3350.46 2558.75 Q3343.64 2558.75 3336.67 2555.27 Q3329.78 2551.79 3325.41 2543.41 Q3318.59 2530.89 3318.59 2506.88 M3331.19 2505.02 Q3331.19 2527.92 3332.82 2537.04 Q3334.67 2546.9 3339.71 2551.19 Q3344.83 2555.42 3350.46 2555.42 Q3356.54 2555.42 3361.58 2550.9 Q3366.69 2546.3 3368.25 2536.45 Q3369.95 2526.74 3369.88 2505.02 Q3369.88 2483.9 3368.39 2475.45 Q3366.39 2465.6 3361.06 2461.67 Q3355.8 2457.67 3350.46 2457.67 Q3348.46 2457.67 3346.31 2458.26 Q3344.23 2458.85 3341.2 2460.56 Q3338.16 2462.26 3335.79 2466.49 Q3333.49 2470.71 3332.38 2477.08 Q3331.19 2485.31 3331.19 2505.02 Z" fill="#000000" fill-rule="nonzero" fill-opacity="1" /><path clip-path="url(#clip810)" d="M3382.47 2402.8 L3382.47 2398.94 Q3397.29 2398.94 3404.93 2391.05 Q3407.04 2391.05 3407.4 2391.54 Q3407.76 2392.02 3407.76 2394.25 L3407.76 2463.43 Q3407.76 2467.11 3409.57 2468.25 Q3411.38 2469.39 3419.27 2469.39 L3423.18 2469.39 L3423.18 2473.19 Q3418.84 2472.83 3403.19 2472.83 Q3387.53 2472.83 3383.26 2473.19 L3383.26 2469.39 L3387.17 2469.39 Q3394.94 2469.39 3396.81 2468.31 Q3398.67 2467.17 3398.67 2463.43 L3398.67 2399.54 Q3392.23 2402.8 3382.47 2402.8 Z" fill="#000000" fill-rule="nonzero" fill-opacity="1" /><path clip-path="url(#clip810)" d="M4017.86 2468.78 L4017.86 2464.04 Q4036.1 2464.04 4045.51 2454.33 Q4048.1 2454.33 4048.55 2454.92 Q4048.99 2455.52 4048.99 2458.26 L4048.99 2543.41 Q4048.99 2547.93 4051.21 2549.34 Q4053.44 2550.75 4063.15 2550.75 L4067.96 2550.75 L4067.96 2555.42 Q4062.63 2554.97 4043.36 2554.97 Q4024.09 2554.97 4018.83 2555.42 L4018.83 2550.75 L4023.65 2550.75 Q4033.21 2550.75 4035.5 2549.42 Q4037.8 2548.01 4037.8 2543.41 L4037.8 2464.78 Q4029.87 2468.78 4017.86 2468.78 Z" fill="#000000" fill-rule="nonzero" fill-opacity="1" /><path clip-path="url(#clip810)" d="M4086.19 2506.88 Q4086.19 2484.57 4091.83 2472.41 Q4099.68 2454.33 4118.21 2454.33 Q4122.14 2454.33 4126.21 2455.44 Q4130.36 2456.48 4135.55 2460.56 Q4140.81 2464.63 4144 2471.3 Q4150.08 2484.2 4150.08 2506.88 Q4150.08 2529.03 4144.44 2541.11 Q4136.22 2558.75 4118.06 2558.75 Q4111.24 2558.75 4104.28 2555.27 Q4097.38 2551.79 4093.01 2543.41 Q4086.19 2530.89 4086.19 2506.88 M4098.79 2505.02 Q4098.79 2527.92 4100.42 2537.04 Q4102.28 2546.9 4107.32 2551.19 Q4112.43 2555.42 4118.06 2555.42 Q4124.14 2555.42 4129.18 2550.9 Q4134.29 2546.3 4135.85 2536.45 Q4137.55 2526.74 4137.48 2505.02 Q4137.48 2483.9 4136 2475.45 Q4133.99 2465.6 4128.66 2461.67 Q4123.4 2457.67 4118.06 2457.67 Q4116.06 2457.67 4113.91 2458.26 Q4111.84 2458.85 4108.8 2460.56 Q4105.76 2462.26 4103.39 2466.49 Q4101.09 2470.71 4099.98 2477.08 Q4098.79 2485.31 4098.79 2505.02 Z" fill="#000000" fill-rule="nonzero" fill-opacity="1" /><path clip-path="url(#clip810)" d="M4150.08 2473.19 Q4150.08 2470.96 4150.26 2470.3 Q4150.5 2469.63 4151.46 2468.61 L4175.13 2442.24 Q4188.07 2427.66 4188.07 2414.96 Q4188.07 2406.71 4183.74 2400.81 Q4179.46 2394.91 4171.57 2394.91 Q4166.15 2394.91 4161.58 2398.22 Q4157 2401.53 4154.89 2407.43 Q4155.26 2407.31 4156.52 2407.31 Q4159.59 2407.31 4161.28 2409.24 Q4163.02 2411.17 4163.02 2413.76 Q4163.02 2417.07 4160.86 2418.69 Q4158.75 2420.26 4156.64 2420.26 Q4155.8 2420.26 4154.65 2420.08 Q4153.57 2419.9 4151.82 2418.21 Q4150.08 2416.46 4150.08 2413.39 Q4150.08 2404.78 4156.58 2397.92 Q4163.14 2391.05 4173.14 2391.05 Q4184.46 2391.05 4191.87 2397.8 Q4199.33 2404.48 4199.33 2414.96 Q4199.33 2418.63 4198.19 2422 Q4197.1 2425.32 4195.6 2427.91 Q4194.15 2430.49 4190.18 2434.65 Q4186.21 2438.8 4183.01 2441.75 Q4179.82 2444.71 4172.66 2450.97 L4159.59 2463.67 L4181.81 2463.67 Q4192.65 2463.67 4193.49 2462.71 Q4194.7 2460.96 4196.2 2451.75 L4199.33 2451.75 L4195.84 2473.19 L4150.08 2473.19 Z" fill="#000000" fill-rule="nonzero" fill-opacity="1" /><path clip-path="url(#clip810)" d="M2555.62 2977.93 L2555.62 2947.91 Q2555.62 2945.36 2555.73 2944.47 Q2555.84 2943.58 2556.51 2942.91 Q2557.18 2942.24 2558.51 2942.24 Q2560.07 2942.24 2560.62 2942.91 Q2561.29 2943.58 2561.73 2946.13 Q2565.18 2961.81 2572.52 2970.15 Q2579.96 2978.37 2593.42 2978.37 Q2606.2 2978.37 2612.65 2972.7 Q2619.09 2967.03 2619.09 2957.69 Q2619.09 2941.02 2595.42 2936.8 Q2581.74 2934.02 2576.07 2932.24 Q2570.4 2930.35 2565.4 2926.24 Q2555.62 2918.23 2555.62 2906.89 Q2555.62 2895.55 2564.18 2887.22 Q2572.85 2878.88 2591.97 2878.88 Q2604.75 2878.88 2613.43 2885.33 Q2615.98 2883.33 2617.32 2881.66 Q2620.32 2878.88 2621.87 2878.88 Q2623.65 2878.88 2623.99 2880.1 Q2624.32 2881.21 2624.32 2884.44 L2624.32 2907.34 Q2624.32 2909.89 2624.21 2910.78 Q2624.1 2911.67 2623.43 2912.34 Q2622.76 2912.9 2621.32 2912.9 Q2618.76 2912.9 2618.65 2910.78 Q2616.87 2883.21 2591.97 2883.21 Q2578.52 2883.21 2572.52 2888.44 Q2566.51 2893.55 2566.51 2900.56 Q2566.51 2904.45 2568.29 2907.45 Q2570.18 2910.34 2572.52 2912.12 Q2574.96 2913.78 2579.41 2915.45 Q2583.86 2917.01 2586.52 2917.56 Q2589.3 2918.12 2594.53 2919.23 Q2612.76 2922.68 2620.43 2930.13 Q2629.99 2939.69 2629.99 2951.8 Q2629.99 2965.25 2620.87 2974.37 Q2611.76 2983.49 2593.42 2983.49 Q2578.63 2983.49 2568.29 2973.59 Q2566.96 2974.93 2565.96 2976.15 Q2564.96 2977.26 2564.51 2977.7 Q2564.18 2978.15 2564.07 2978.48 Q2563.96 2978.71 2563.73 2978.93 Q2559.18 2983.49 2558.06 2983.49 Q2556.29 2983.49 2555.95 2982.26 Q2555.62 2981.15 2555.62 2977.93 Z" fill="#000000" fill-rule="nonzero" fill-opacity="1" /><path clip-path="url(#clip810)" d="M2645 2980.93 L2645 2973.92 Q2657.11 2973.92 2659.89 2972.48 Q2662.67 2970.92 2662.67 2963.59 L2662.67 2845.2 Q2662.67 2836.75 2659.67 2834.64 Q2656.78 2832.52 2645 2832.52 L2645 2825.41 L2677.68 2822.96 L2677.68 2902.11 L2677.9 2902.11 Q2681.57 2893.89 2689.8 2887.1 Q2698.02 2880.32 2710.69 2880.32 Q2727.81 2880.32 2734.59 2888.77 Q2739.6 2894.44 2740.6 2900.78 Q2741.71 2907.11 2741.71 2923.57 L2741.71 2967.03 Q2741.93 2971.81 2745.6 2972.92 Q2749.27 2973.92 2759.5 2973.92 L2759.5 2980.93 Q2736.26 2980.26 2733.93 2980.26 Q2732.15 2980.26 2708.25 2980.93 L2708.25 2973.92 Q2720.37 2973.92 2723.14 2972.48 Q2726.04 2970.92 2726.04 2963.59 L2726.04 2910.56 Q2726.04 2899 2722.48 2892.22 Q2718.92 2885.33 2709.14 2885.33 Q2697.35 2885.33 2687.91 2895.22 Q2678.46 2905.11 2678.46 2921.79 L2678.46 2963.59 Q2678.46 2970.92 2681.24 2972.48 Q2684.13 2973.92 2696.13 2973.92 L2696.13 2980.93 Q2672.9 2980.26 2670.68 2980.26 Q2668.9 2980.26 2645 2980.93 Z" fill="#000000" fill-rule="nonzero" fill-opacity="1" /><path clip-path="url(#clip810)" d="M2771.5 2980.93 L2771.5 2973.92 Q2783.62 2973.92 2786.4 2972.48 Q2789.18 2970.92 2789.18 2963.59 L2789.18 2902.33 Q2789.18 2893.89 2786.29 2891.89 Q2783.51 2889.88 2772.39 2889.88 L2772.39 2882.77 L2804.18 2880.32 L2804.18 2963.81 Q2804.18 2970.59 2806.63 2972.26 Q2809.08 2973.92 2820.19 2973.92 L2820.19 2980.93 Q2796.96 2980.26 2796.51 2980.26 Q2793.4 2980.26 2771.5 2980.93 M2781.06 2840.64 Q2781.06 2836.08 2784.51 2832.41 Q2788.07 2828.63 2793.07 2828.63 Q2798.07 2828.63 2801.63 2832.08 Q2805.18 2835.41 2805.18 2840.75 Q2805.18 2845.97 2801.63 2849.42 Q2798.07 2852.75 2793.07 2852.75 Q2787.84 2852.75 2784.4 2849.09 Q2781.06 2845.42 2781.06 2840.64 Z" fill="#000000" fill-rule="nonzero" fill-opacity="1" /><path clip-path="url(#clip810)" d="M2834.53 2889.88 L2834.53 2882.77 L2852.43 2882.77 L2852.43 2856.65 Q2852.43 2839.75 2863.32 2830.08 Q2874.33 2820.41 2887.78 2820.41 Q2896.67 2820.41 2902.45 2825.19 Q2908.23 2829.97 2908.23 2836.41 Q2908.23 2840.75 2905.57 2843.64 Q2903.01 2846.42 2898.23 2846.42 Q2893.67 2846.42 2891 2843.53 Q2888.45 2840.64 2888.45 2836.64 Q2888.45 2829.3 2895.23 2827.08 Q2891.78 2825.52 2887.78 2825.41 Q2879.55 2825.41 2873.11 2833.86 Q2866.77 2842.31 2866.77 2856.42 L2866.77 2882.77 L2893.45 2882.77 L2893.45 2889.88 L2867.55 2889.88 L2867.55 2963.14 Q2867.55 2969.7 2870.22 2971.81 Q2873 2973.92 2884.78 2973.92 L2889.56 2973.92 L2889.56 2980.93 Q2880.44 2980.26 2860.66 2980.26 Q2857.88 2980.26 2853.54 2980.37 Q2849.32 2980.48 2843.54 2980.71 Q2837.87 2980.93 2834.75 2980.93 L2834.75 2973.92 Q2846.87 2973.92 2849.65 2972.48 Q2852.43 2970.92 2852.43 2963.59 L2852.43 2889.88 L2834.53 2889.88 Z" fill="#000000" fill-rule="nonzero" fill-opacity="1" /><path clip-path="url(#clip810)" d="M2900.68 2889.88 L2900.68 2884.88 Q2911.13 2884.44 2918.02 2877.1 Q2925.02 2869.65 2927.36 2860.54 Q2929.8 2851.42 2930.02 2840.86 L2935.69 2840.86 L2935.69 2882.77 L2968.26 2882.77 L2968.26 2889.88 L2935.69 2889.88 L2935.69 2953.14 Q2935.69 2977.7 2951.03 2977.7 Q2957.59 2977.7 2961.93 2971.03 Q2966.26 2964.25 2966.26 2952.25 L2966.26 2939.69 L2971.93 2939.69 L2971.93 2952.69 Q2971.93 2965.03 2966.26 2974.26 Q2960.59 2983.49 2949.37 2983.49 Q2945.25 2983.49 2941.14 2982.37 Q2937.14 2981.37 2931.8 2978.71 Q2926.58 2975.93 2923.24 2969.26 Q2920.02 2962.47 2920.02 2952.69 L2920.02 2889.88 L2900.68 2889.88 Z" fill="#000000" fill-rule="nonzero" fill-opacity="1" /><polyline clip-path="url(#clip810)" style="stroke:#000000; stroke-linecap:round; stroke-linejoin:round; stroke-width:4; stroke-opacity:1; fill:none" points="916.528,2340.44 916.528,610.253 "/>
<polyline clip-path="url(#clip810)" style="stroke:#000000; stroke-linecap:round; stroke-linejoin:round; stroke-width:4; stroke-opacity:1; fill:none" points="916.528,2217.79 935.426,2217.79 "/>
<polyline clip-path="url(#clip810)" style="stroke:#000000; stroke-linecap:round; stroke-linejoin:round; stroke-width:4; stroke-opacity:1; fill:none" points="916.528,1957.01 935.426,1957.01 "/>
<polyline clip-path="url(#clip810)" style="stroke:#000000; stroke-linecap:round; stroke-linejoin:round; stroke-width:4; stroke-opacity:1; fill:none" points="916.528,1696.23 935.426,1696.23 "/>
<polyline clip-path="url(#clip810)" style="stroke:#000000; stroke-linecap:round; stroke-linejoin:round; stroke-width:4; stroke-opacity:1; fill:none" points="916.528,1435.45 935.426,1435.45 "/>
<polyline clip-path="url(#clip810)" style="stroke:#000000; stroke-linecap:round; stroke-linejoin:round; stroke-width:4; stroke-opacity:1; fill:none" points="916.528,1174.67 935.426,1174.67 "/>
<polyline clip-path="url(#clip810)" style="stroke:#000000; stroke-linecap:round; stroke-linejoin:round; stroke-width:4; stroke-opacity:1; fill:none" points="916.528,913.895 935.426,913.895 "/>
<polyline clip-path="url(#clip810)" style="stroke:#000000; stroke-linecap:round; stroke-linejoin:round; stroke-width:4; stroke-opacity:1; fill:none" points="916.528,653.115 935.426,653.115 "/>
<path clip-path="url(#clip810)" d="M663.032 2221.09 Q663.032 2198.78 668.665 2186.63 Q676.52 2168.55 695.048 2168.55 Q698.976 2168.55 703.052 2169.66 Q707.202 2170.69 712.39 2174.77 Q717.652 2178.85 720.838 2185.52 Q726.915 2198.41 726.915 2221.09 Q726.915 2243.25 721.283 2255.33 Q713.057 2272.97 694.9 2272.97 Q688.082 2272.97 681.115 2269.48 Q674.223 2266 669.851 2257.63 Q663.032 2245.1 663.032 2221.09 M675.631 2219.24 Q675.631 2242.14 677.262 2251.25 Q679.114 2261.11 684.154 2265.41 Q689.267 2269.63 694.9 2269.63 Q700.977 2269.63 706.016 2265.11 Q711.13 2260.52 712.686 2250.66 Q714.391 2240.95 714.317 2219.24 Q714.317 2198.12 712.834 2189.67 Q710.833 2179.81 705.498 2175.88 Q700.236 2171.88 694.9 2171.88 Q692.899 2171.88 690.75 2172.47 Q688.675 2173.07 685.636 2174.77 Q682.598 2176.48 680.226 2180.7 Q677.929 2184.92 676.817 2191.3 Q675.631 2199.52 675.631 2219.24 Z" fill="#000000" fill-rule="nonzero" fill-opacity="1" /><path clip-path="url(#clip810)" d="M748.185 2267.19 Q745.888 2264.74 745.888 2261.55 Q745.888 2258.37 748.185 2256.07 Q750.482 2253.7 753.966 2253.7 Q757.3 2253.7 759.524 2255.92 Q761.821 2258.07 761.821 2261.63 Q761.821 2265.11 759.376 2267.41 Q757.004 2269.63 753.966 2269.63 Q750.482 2269.63 748.185 2267.19 Z" fill="#000000" fill-rule="nonzero" fill-opacity="1" /><path clip-path="url(#clip810)" d="M781.534 2246.73 Q781.534 2229.76 803.397 2218.79 Q793.985 2212.42 792.28 2210.57 Q785.611 2203.15 785.611 2193.89 Q785.611 2183.29 793.614 2175.96 Q801.692 2168.55 813.105 2168.55 Q824 2168.55 832.226 2174.84 Q840.452 2181.14 840.452 2191.15 Q840.452 2205.23 822.073 2214.72 Q834.227 2222.28 837.117 2225.46 Q844.528 2233.69 844.528 2244.14 Q844.528 2256.29 835.19 2264.67 Q825.852 2272.97 812.957 2272.97 Q800.358 2272.97 790.946 2265.63 Q781.534 2258.29 781.534 2246.73 M789.094 2246.73 Q789.094 2256.14 796.134 2262.44 Q803.249 2268.74 813.105 2268.74 Q822.666 2268.74 829.78 2263.26 Q836.969 2257.77 836.969 2249.62 Q836.969 2246.44 835.857 2243.69 Q834.82 2240.95 832.67 2238.8 Q830.595 2236.58 829.261 2235.62 Q828.001 2234.58 825.556 2232.87 L806.88 2221.09 Q789.094 2230.95 789.094 2246.73 M792.28 2187.96 Q792.28 2195.23 799.914 2200.26 L818.738 2212.42 Q833.782 2203.6 833.782 2191.15 Q833.782 2183.07 827.631 2177.74 Q821.48 2172.33 812.957 2172.33 Q804.583 2172.33 798.432 2176.77 Q792.28 2181.14 792.28 2187.96 Z" fill="#000000" fill-rule="nonzero" fill-opacity="1" /><path clip-path="url(#clip810)" d="M670.147 1922.22 L670.147 1917.47 Q688.378 1917.47 697.79 1907.77 Q700.384 1907.77 700.829 1908.36 Q701.273 1908.95 701.273 1911.69 L701.273 1996.85 Q701.273 2001.37 703.497 2002.78 Q705.72 2004.18 715.428 2004.18 L720.245 2004.18 L720.245 2008.85 Q714.909 2008.41 695.641 2008.41 Q676.372 2008.41 671.11 2008.85 L671.11 2004.18 L675.928 2004.18 Q685.488 2004.18 687.785 2002.85 Q690.083 2001.44 690.083 1996.85 L690.083 1918.22 Q682.153 1922.22 670.147 1922.22 Z" fill="#000000" fill-rule="nonzero" fill-opacity="1" /><path clip-path="url(#clip810)" d="M747.74 2006.41 Q745.443 2003.96 745.443 2000.77 Q745.443 1997.59 747.74 1995.29 Q750.038 1992.92 753.521 1992.92 Q756.856 1992.92 759.079 1995.14 Q761.377 1997.29 761.377 2000.85 Q761.377 2004.33 758.931 2006.63 Q756.559 2008.85 753.521 2008.85 Q750.038 2008.85 747.74 2006.41 Z" fill="#000000" fill-rule="nonzero" fill-opacity="1" /><path clip-path="url(#clip810)" d="M780.645 1960.31 Q780.645 1938 786.278 1925.85 Q794.133 1907.77 812.661 1907.77 Q816.589 1907.77 820.665 1908.88 Q824.815 1909.92 830.002 1913.99 Q835.264 1918.07 838.451 1924.74 Q844.528 1937.63 844.528 1960.31 Q844.528 1982.47 838.896 1994.55 Q830.669 2012.19 812.512 2012.19 Q805.694 2012.19 798.728 2008.7 Q791.836 2005.22 787.463 1996.85 Q780.645 1984.32 780.645 1960.31 M793.244 1958.46 Q793.244 1981.36 794.874 1990.47 Q796.727 2000.33 801.767 2004.63 Q806.88 2008.85 812.512 2008.85 Q818.589 2008.85 823.629 2004.33 Q828.743 1999.74 830.299 1989.88 Q832.003 1980.17 831.929 1958.46 Q831.929 1937.34 830.447 1928.89 Q828.446 1919.03 823.11 1915.1 Q817.848 1911.1 812.512 1911.1 Q810.511 1911.1 808.362 1911.69 Q806.287 1912.29 803.249 1913.99 Q800.21 1915.7 797.839 1919.92 Q795.541 1924.14 794.43 1930.52 Q793.244 1938.74 793.244 1958.46 Z" fill="#000000" fill-rule="nonzero" fill-opacity="1" /><path clip-path="url(#clip810)" d="M671.777 1661.44 L671.777 1656.7 Q690.009 1656.7 699.42 1646.99 Q702.014 1646.99 702.459 1647.58 Q702.904 1648.17 702.904 1650.91 L702.904 1736.07 Q702.904 1740.59 705.127 1742 Q707.35 1743.4 717.059 1743.4 L721.876 1743.4 L721.876 1748.07 Q716.54 1747.63 697.271 1747.63 Q678.003 1747.63 672.741 1748.07 L672.741 1743.4 L677.558 1743.4 Q687.118 1743.4 689.416 1742.07 Q691.713 1740.66 691.713 1736.07 L691.713 1657.44 Q683.783 1661.44 671.777 1661.44 Z" fill="#000000" fill-rule="nonzero" fill-opacity="1" /><path clip-path="url(#clip810)" d="M749.371 1745.63 Q747.073 1743.18 747.073 1739.99 Q747.073 1736.81 749.371 1734.51 Q751.668 1732.14 755.151 1732.14 Q758.486 1732.14 760.71 1734.36 Q763.007 1736.51 763.007 1740.07 Q763.007 1743.55 760.561 1745.85 Q758.19 1748.07 755.151 1748.07 Q751.668 1748.07 749.371 1745.63 Z" fill="#000000" fill-rule="nonzero" fill-opacity="1" /><path clip-path="url(#clip810)" d="M783.906 1748.07 Q783.906 1745.33 784.128 1744.52 Q784.425 1743.7 785.611 1742.44 L814.736 1709.98 Q830.669 1692.05 830.669 1676.41 Q830.669 1666.26 825.334 1658.99 Q820.072 1651.73 810.363 1651.73 Q803.693 1651.73 798.061 1655.81 Q792.429 1659.88 789.835 1667.14 Q790.279 1667 791.836 1667 Q795.615 1667 797.69 1669.37 Q799.84 1671.74 799.84 1674.93 Q799.84 1679 797.172 1681 Q794.578 1682.93 791.984 1682.93 Q790.946 1682.93 789.538 1682.71 Q788.204 1682.49 786.055 1680.41 Q783.906 1678.26 783.906 1674.48 Q783.906 1663.88 791.91 1655.44 Q799.988 1646.99 812.29 1646.99 Q826.223 1646.99 835.338 1655.29 Q844.528 1663.51 844.528 1676.41 Q844.528 1680.93 843.12 1685.08 Q841.786 1689.16 839.933 1692.34 Q838.155 1695.53 833.263 1700.64 Q828.372 1705.76 824.444 1709.39 Q820.516 1713.02 811.697 1720.73 L795.615 1736.36 L822.962 1736.36 Q836.302 1736.36 837.339 1735.18 Q838.822 1733.03 840.674 1721.69 L844.528 1721.69 L840.23 1748.07 L783.906 1748.07 Z" fill="#000000" fill-rule="nonzero" fill-opacity="1" /><path clip-path="url(#clip810)" d="M668.442 1400.66 L668.442 1395.92 Q686.674 1395.92 696.086 1386.21 Q698.679 1386.21 699.124 1386.8 Q699.569 1387.39 699.569 1390.14 L699.569 1475.29 Q699.569 1479.81 701.792 1481.22 Q704.015 1482.62 713.724 1482.62 L718.541 1482.62 L718.541 1487.29 Q713.205 1486.85 693.936 1486.85 Q674.668 1486.85 669.406 1487.29 L669.406 1482.62 L674.223 1482.62 Q683.783 1482.62 686.081 1481.29 Q688.378 1479.88 688.378 1475.29 L688.378 1396.66 Q680.448 1400.66 668.442 1400.66 Z" fill="#000000" fill-rule="nonzero" fill-opacity="1" /><path clip-path="url(#clip810)" d="M746.036 1484.85 Q743.738 1482.4 743.738 1479.22 Q743.738 1476.03 746.036 1473.73 Q748.333 1471.36 751.816 1471.36 Q755.151 1471.36 757.375 1473.58 Q759.672 1475.73 759.672 1479.29 Q759.672 1482.77 757.226 1485.07 Q754.855 1487.29 751.816 1487.29 Q748.333 1487.29 746.036 1484.85 Z" fill="#000000" fill-rule="nonzero" fill-opacity="1" /><path clip-path="url(#clip810)" d="M777.236 1462.24 L777.236 1457.58 L823.851 1386.36 Q825.037 1384.5 826.89 1384.58 Q828.594 1384.58 828.965 1385.24 Q829.335 1385.91 829.335 1388.5 L829.335 1457.58 L844.528 1457.58 L844.528 1462.24 L829.335 1462.24 L829.335 1475.44 Q829.335 1479.81 831.114 1481.22 Q832.967 1482.62 840.823 1482.62 L844.009 1482.62 L844.009 1487.29 Q837.784 1486.85 823.407 1486.85 Q809.103 1486.85 802.878 1487.29 L802.878 1482.62 L806.065 1482.62 Q813.921 1482.62 815.773 1481.29 Q817.626 1479.88 817.626 1475.44 L817.626 1462.24 L777.236 1462.24 M781.534 1457.58 L818.515 1457.58 L818.515 1400.96 L781.534 1457.58 Z" fill="#000000" fill-rule="nonzero" fill-opacity="1" /><path clip-path="url(#clip810)" d="M670.592 1139.88 L670.592 1135.14 Q688.823 1135.14 698.235 1125.43 Q700.829 1125.43 701.273 1126.02 Q701.718 1126.61 701.718 1129.36 L701.718 1214.51 Q701.718 1219.03 703.941 1220.44 Q706.165 1221.84 715.873 1221.84 L720.69 1221.84 L720.69 1226.51 Q715.354 1226.07 696.086 1226.07 Q676.817 1226.07 671.555 1226.51 L671.555 1221.84 L676.372 1221.84 Q685.932 1221.84 688.23 1220.51 Q690.527 1219.1 690.527 1214.51 L690.527 1135.88 Q682.598 1139.88 670.592 1139.88 Z" fill="#000000" fill-rule="nonzero" fill-opacity="1" /><path clip-path="url(#clip810)" d="M748.185 1224.07 Q745.888 1221.62 745.888 1218.44 Q745.888 1215.25 748.185 1212.95 Q750.482 1210.58 753.966 1210.58 Q757.3 1210.58 759.524 1212.8 Q761.821 1214.95 761.821 1218.51 Q761.821 1221.99 759.376 1224.29 Q757.004 1226.51 753.966 1226.51 Q750.482 1226.51 748.185 1224.07 Z" fill="#000000" fill-rule="nonzero" fill-opacity="1" /><path clip-path="url(#clip810)" d="M781.534 1178.56 Q781.534 1154.7 793.689 1140.1 Q805.843 1125.43 821.48 1125.43 Q830.595 1125.43 835.635 1130.1 Q840.748 1134.69 840.748 1141.81 Q840.748 1145.73 838.451 1147.44 Q836.154 1149.14 833.782 1149.14 Q831.04 1149.14 828.891 1147.29 Q826.742 1145.44 826.742 1142.1 Q826.742 1135.28 835.116 1135.28 Q831.188 1129.21 821.776 1129.21 Q818.886 1129.21 815.922 1130.1 Q812.957 1130.91 809.103 1133.73 Q805.25 1136.54 802.285 1140.99 Q799.321 1145.44 797.246 1153.81 Q795.171 1162.19 795.171 1173.08 L795.171 1176.71 Q801.396 1161.67 814.143 1161.74 Q826.89 1161.74 835.709 1171.45 Q844.528 1181.16 844.528 1195.54 Q844.528 1210.28 835.338 1220.07 Q826.149 1229.85 813.254 1229.85 Q807.473 1229.85 802.211 1227.4 Q797.023 1225.03 792.132 1219.55 Q787.315 1214.06 784.425 1203.54 Q781.534 1193.02 781.534 1178.56 M795.467 1192.2 Q795.467 1207.1 798.209 1214.21 Q798.654 1215.4 799.617 1217.03 Q800.655 1218.66 802.359 1220.81 Q804.138 1222.88 807.028 1224.29 Q809.919 1225.62 813.254 1225.62 Q823.407 1225.62 828.298 1215.77 Q830.892 1210.28 830.892 1195.39 Q830.892 1180.2 828.15 1174.64 Q823.481 1165.22 813.995 1165.22 Q807.621 1165.22 803.175 1169.6 Q798.802 1173.97 797.098 1179.82 Q795.467 1185.68 795.467 1192.2 Z" fill="#000000" fill-rule="nonzero" fill-opacity="1" /><path clip-path="url(#clip810)" d="M670.592 879.1 L670.592 874.357 Q688.823 874.357 698.235 864.648 Q700.829 864.648 701.273 865.241 Q701.718 865.834 701.718 868.576 L701.718 953.729 Q701.718 958.249 703.941 959.658 Q706.165 961.066 715.873 961.066 L720.69 961.066 L720.69 965.735 Q715.354 965.29 696.086 965.29 Q676.817 965.29 671.555 965.735 L671.555 961.066 L676.372 961.066 Q685.932 961.066 688.23 959.732 Q690.527 958.324 690.527 953.729 L690.527 875.098 Q682.598 879.1 670.592 879.1 Z" fill="#000000" fill-rule="nonzero" fill-opacity="1" /><path clip-path="url(#clip810)" d="M748.185 963.289 Q745.888 960.843 745.888 957.657 Q745.888 954.47 748.185 952.172 Q750.482 949.801 753.966 949.801 Q757.3 949.801 759.524 952.024 Q761.821 954.173 761.821 957.731 Q761.821 961.214 759.376 963.511 Q757.004 965.735 753.966 965.735 Q750.482 965.735 748.185 963.289 Z" fill="#000000" fill-rule="nonzero" fill-opacity="1" /><path clip-path="url(#clip810)" d="M781.534 942.835 Q781.534 925.863 803.397 914.895 Q793.985 908.522 792.28 906.669 Q785.611 899.258 785.611 889.994 Q785.611 879.396 793.614 872.059 Q801.692 864.648 813.105 864.648 Q824 864.648 832.226 870.948 Q840.452 877.247 840.452 887.252 Q840.452 901.333 822.073 910.819 Q834.227 918.378 837.117 921.565 Q844.528 929.791 844.528 940.241 Q844.528 952.395 835.19 960.769 Q825.852 969.069 812.957 969.069 Q800.358 969.069 790.946 961.733 Q781.534 954.396 781.534 942.835 M789.094 942.835 Q789.094 952.246 796.134 958.546 Q803.249 964.845 813.105 964.845 Q822.666 964.845 829.78 959.361 Q836.969 953.877 836.969 945.725 Q836.969 942.538 835.857 939.796 Q834.82 937.054 832.67 934.905 Q830.595 932.681 829.261 931.718 Q828.001 930.68 825.556 928.976 L806.88 917.192 Q789.094 927.049 789.094 942.835 M792.28 884.065 Q792.28 891.328 799.914 896.367 L818.738 908.522 Q833.782 899.702 833.782 887.252 Q833.782 879.174 827.631 873.838 Q821.48 868.428 812.957 868.428 Q804.583 868.428 798.432 872.875 Q792.28 877.247 792.28 884.065 Z" fill="#000000" fill-rule="nonzero" fill-opacity="1" /><path clip-path="url(#clip810)" d="M664.218 704.955 Q664.218 702.213 664.441 701.398 Q664.737 700.583 665.923 699.323 L695.048 666.863 Q710.982 648.928 710.982 633.291 Q710.982 623.138 705.646 615.875 Q700.384 608.612 690.676 608.612 Q684.006 608.612 678.373 612.688 Q672.741 616.764 670.147 624.027 Q670.592 623.879 672.148 623.879 Q675.928 623.879 678.003 626.25 Q680.152 628.622 680.152 631.808 Q680.152 635.885 677.484 637.886 Q674.89 639.812 672.296 639.812 Q671.259 639.812 669.851 639.59 Q668.517 639.368 666.367 637.293 Q664.218 635.143 664.218 631.364 Q664.218 620.766 672.222 612.318 Q680.3 603.869 692.602 603.869 Q706.535 603.869 715.651 612.169 Q724.84 620.396 724.84 633.291 Q724.84 637.811 723.432 641.962 Q722.098 646.038 720.245 649.224 Q718.467 652.411 713.576 657.525 Q708.684 662.638 704.756 666.27 Q700.829 669.901 692.009 677.609 L675.928 693.246 L703.274 693.246 Q716.614 693.246 717.652 692.06 Q719.134 689.911 720.987 678.572 L724.84 678.572 L720.542 704.955 L664.218 704.955 Z" fill="#000000" fill-rule="nonzero" fill-opacity="1" /><path clip-path="url(#clip810)" d="M747.74 702.509 Q745.443 700.064 745.443 696.877 Q745.443 693.69 747.74 691.393 Q750.038 689.021 753.521 689.021 Q756.856 689.021 759.079 691.245 Q761.377 693.394 761.377 696.951 Q761.377 700.434 758.931 702.732 Q756.559 704.955 753.521 704.955 Q750.038 704.955 747.74 702.509 Z" fill="#000000" fill-rule="nonzero" fill-opacity="1" /><path clip-path="url(#clip810)" d="M780.645 656.413 Q780.645 634.106 786.278 621.952 Q794.133 603.869 812.661 603.869 Q816.589 603.869 820.665 604.981 Q824.815 606.018 830.002 610.094 Q835.264 614.17 838.451 620.84 Q844.528 633.735 844.528 656.413 Q844.528 678.572 838.896 690.652 Q830.669 708.29 812.512 708.29 Q805.694 708.29 798.728 704.807 Q791.836 701.324 787.463 692.949 Q780.645 680.425 780.645 656.413 M793.244 654.56 Q793.244 677.46 794.874 686.576 Q796.727 696.432 801.767 700.731 Q806.88 704.955 812.512 704.955 Q818.589 704.955 823.629 700.434 Q828.743 695.84 830.299 685.983 Q832.003 676.275 831.929 654.56 Q831.929 633.439 830.447 624.99 Q828.446 615.134 823.11 611.206 Q817.848 607.204 812.512 607.204 Q810.511 607.204 808.362 607.797 Q806.287 608.39 803.249 610.094 Q800.21 611.799 797.839 616.023 Q795.541 620.247 794.43 626.621 Q793.244 634.847 793.244 654.56 Z" fill="#000000" fill-rule="nonzero" fill-opacity="1" /><path clip-path="url(#clip810)" d="M385.855 2198.75 L355.84 2198.75 Q353.284 2198.75 352.394 2198.64 Q351.505 2198.53 350.838 2197.86 Q350.171 2197.2 350.171 2195.86 Q350.171 2194.31 350.838 2193.75 Q351.505 2193.08 354.062 2192.64 Q369.736 2189.19 378.073 2181.86 Q386.3 2174.41 386.3 2160.96 Q386.3 2148.17 380.63 2141.72 Q374.961 2135.28 365.623 2135.28 Q348.948 2135.28 344.724 2158.96 Q341.945 2172.63 340.166 2178.3 Q338.276 2183.97 334.163 2188.97 Q326.159 2198.75 314.82 2198.75 Q303.482 2198.75 295.144 2190.19 Q286.807 2181.52 286.807 2162.4 Q286.807 2149.62 293.254 2140.95 Q291.253 2138.39 289.586 2137.06 Q286.807 2134.05 286.807 2132.5 Q286.807 2130.72 288.03 2130.39 Q289.141 2130.05 292.365 2130.05 L315.265 2130.05 Q317.822 2130.05 318.711 2130.16 Q319.601 2130.27 320.268 2130.94 Q320.823 2131.61 320.823 2133.05 Q320.823 2135.61 318.711 2135.72 Q291.142 2137.5 291.142 2162.4 Q291.142 2175.85 296.367 2181.86 Q301.481 2187.86 308.484 2187.86 Q312.375 2187.86 315.376 2186.08 Q318.267 2184.19 320.045 2181.86 Q321.713 2179.41 323.38 2174.96 Q324.936 2170.52 325.492 2167.85 Q326.048 2165.07 327.16 2159.84 Q330.606 2141.61 338.054 2133.94 Q347.614 2124.38 359.731 2124.38 Q373.182 2124.38 382.298 2133.5 Q391.413 2142.61 391.413 2160.96 Q391.413 2175.74 381.52 2186.08 Q382.854 2187.41 384.076 2188.41 Q385.188 2189.41 385.633 2189.86 Q386.077 2190.19 386.411 2190.3 Q386.633 2190.41 386.855 2190.64 Q391.413 2195.19 391.413 2196.31 Q391.413 2198.09 390.19 2198.42 Q389.079 2198.75 385.855 2198.75 Z" fill="#000000" fill-rule="nonzero" fill-opacity="1" /><path clip-path="url(#clip810)" d="M425.986 2110.38 Q425.986 2098.26 424.429 2095.48 Q422.984 2092.59 415.758 2092.59 L309.151 2092.59 Q301.592 2092.59 299.702 2095.48 Q297.812 2098.26 297.812 2110.38 L290.698 2110.38 L288.252 2077.58 L303.259 2077.58 Q288.252 2063.91 288.252 2045.68 Q288.252 2026.34 303.259 2012.22 Q318.267 1998.1 339.721 1998.1 Q361.399 1998.1 376.406 2013.11 Q391.413 2028.11 391.413 2048.9 Q391.413 2060.24 385.633 2067.91 Q379.741 2075.47 375.405 2076.92 L377.518 2076.92 L415.758 2076.92 Q423.095 2076.92 424.54 2074.03 Q425.986 2071.13 425.986 2059.13 L432.989 2059.13 Q432.322 2083.03 432.322 2084.81 Q432.322 2087.03 432.989 2110.38 L425.986 2110.38 M362.955 2076.92 Q366.401 2076.92 367.624 2076.47 Q368.847 2075.91 372.515 2073.69 Q386.3 2064.69 386.3 2050.01 Q386.3 2049.9 386.3 2049.79 Q386.3 2036.78 373.071 2026.89 Q359.731 2017 339.721 2017 Q320.601 2017 307.261 2026 Q293.921 2035.01 293.921 2047.46 Q293.921 2056.35 298.702 2064.13 Q303.482 2071.91 312.153 2076.92 L362.955 2076.92 Z" fill="#000000" fill-rule="nonzero" fill-opacity="1" /><path clip-path="url(#clip810)" d="M338.721 1977.76 Q317.266 1977.76 302.036 1963.97 Q286.807 1950.19 286.807 1930.4 Q286.807 1910.39 299.813 1900.05 Q312.82 1889.6 331.495 1889.6 Q334.941 1889.6 335.608 1890.49 Q336.275 1891.38 336.275 1895.27 L336.275 1958.86 Q359.509 1958.86 370.403 1951.97 Q385.633 1942.41 385.633 1926.29 Q385.633 1924.06 385.188 1921.4 Q384.743 1918.73 382.854 1913.28 Q380.853 1907.83 375.628 1903.05 Q370.403 1898.27 362.177 1895.49 Q358.953 1894.83 359.064 1892.6 Q359.064 1889.6 361.732 1889.6 Q363.733 1889.6 368.291 1891.83 Q372.737 1893.94 378.073 1898.05 Q383.409 1902.16 387.411 1910.17 Q391.413 1918.06 391.413 1927.62 Q391.413 1947.63 376.295 1962.75 Q361.065 1977.76 338.721 1977.76 M331.495 1958.64 L331.495 1904.61 Q326.715 1904.61 321.379 1905.5 Q316.043 1906.28 308.706 1908.72 Q301.258 1911.06 296.589 1916.62 Q291.92 1922.17 291.92 1930.4 Q291.92 1934.07 293.477 1938.07 Q295.033 1941.96 298.813 1946.74 Q302.592 1951.52 311.152 1954.86 Q319.712 1958.19 331.495 1958.64 Z" fill="#000000" fill-rule="nonzero" fill-opacity="1" /><path clip-path="url(#clip810)" d="M376.406 1860.81 Q361.287 1875.26 339.721 1875.26 Q318.044 1875.26 302.481 1861.03 Q286.807 1846.8 286.807 1825.9 Q286.807 1812.01 293.477 1801.56 Q300.036 1791.11 311.263 1791.11 Q316.266 1791.11 319.156 1794.11 Q321.935 1797 321.935 1801.56 Q321.935 1806.34 319.045 1809.23 Q316.043 1812.01 311.486 1812.01 Q309.485 1812.01 307.484 1811.34 Q305.483 1810.67 303.37 1808.23 Q301.258 1805.67 300.925 1801.34 Q292.587 1809.45 292.587 1825.24 Q292.587 1825.46 292.587 1825.68 Q292.587 1837.24 303.482 1846.8 Q314.376 1856.36 339.277 1856.36 Q352.283 1856.36 361.843 1853.25 Q371.292 1850.03 376.184 1844.8 Q381.075 1839.58 383.409 1834.46 Q385.633 1829.35 385.633 1824.35 Q385.633 1802 361.732 1794.44 Q359.509 1793.78 359.509 1791.55 Q359.509 1788.55 361.732 1788.55 Q362.844 1788.55 365.734 1789.44 Q368.624 1790.33 373.182 1793.11 Q377.74 1795.89 381.742 1799.89 Q385.633 1803.78 388.523 1810.79 Q391.413 1817.68 391.413 1826.35 Q391.413 1846.36 376.406 1860.81 Z" fill="#000000" fill-rule="nonzero" fill-opacity="1" /><path clip-path="url(#clip810)" d="M297.812 1777.66 L292.81 1777.66 Q292.365 1767.21 285.028 1760.32 Q277.58 1753.31 268.465 1750.98 Q259.349 1748.53 248.788 1748.31 L248.788 1742.64 L290.698 1742.64 L290.698 1710.07 L297.812 1710.07 L297.812 1742.64 L361.065 1742.64 Q385.633 1742.64 385.633 1727.3 Q385.633 1720.74 378.963 1716.41 Q372.182 1712.07 360.176 1712.07 L347.614 1712.07 L347.614 1706.4 L360.621 1706.4 Q372.96 1706.4 382.187 1712.07 Q391.413 1717.74 391.413 1728.97 Q391.413 1733.08 390.302 1737.19 Q389.301 1741.2 386.633 1746.53 Q383.854 1751.76 377.184 1755.09 Q370.403 1758.32 360.621 1758.32 L297.812 1758.32 L297.812 1777.66 Z" fill="#000000" fill-rule="nonzero" fill-opacity="1" /><path clip-path="url(#clip810)" d="M388.856 1687.39 L381.853 1687.39 Q381.853 1675.28 380.408 1672.5 Q378.852 1669.61 371.515 1669.61 L310.485 1669.61 Q302.036 1669.61 299.924 1672.61 Q297.812 1675.5 297.812 1687.39 L290.698 1687.39 L288.252 1655.71 L313.264 1655.71 Q303.482 1652.49 295.922 1645.71 Q288.252 1638.81 288.252 1627.7 Q288.252 1620.36 292.365 1615.69 Q296.478 1610.91 302.148 1610.91 Q307.15 1610.91 309.707 1614.02 Q312.153 1617.03 312.153 1620.69 Q312.153 1624.81 309.596 1627.7 Q306.928 1630.48 302.37 1630.48 Q299.591 1630.48 297.479 1629.25 Q295.255 1627.92 294.477 1626.92 Q293.699 1625.92 293.477 1625.25 Q293.254 1625.7 293.254 1627.7 Q293.254 1640.26 305.816 1647.48 Q318.267 1654.6 336.053 1654.6 L371.07 1654.6 Q377.629 1654.6 379.741 1651.93 Q381.853 1649.15 381.853 1637.26 L381.853 1632.48 L388.856 1632.48 Q388.189 1641.59 388.189 1661.38 Q388.189 1664.16 388.301 1668.49 Q388.412 1672.83 388.634 1678.5 Q388.856 1684.17 388.856 1687.39 Z" fill="#000000" fill-rule="nonzero" fill-opacity="1" /><path clip-path="url(#clip810)" d="M367.179 1595.24 Q347.837 1595.24 337.609 1572.45 Q331.051 1558.77 329.383 1530.54 L321.046 1530.54 Q306.928 1530.54 299.48 1537.99 Q291.92 1545.32 291.92 1554.66 Q291.92 1571.34 302.37 1579.34 Q302.592 1572.56 306.038 1570.11 Q309.373 1567.67 312.82 1567.67 Q317.377 1567.67 320.379 1570.56 Q323.269 1573.34 323.269 1578.12 Q323.269 1582.68 320.49 1585.68 Q317.6 1588.68 312.597 1588.68 Q301.481 1588.68 294.144 1578.67 Q286.807 1568.56 286.807 1554.22 Q286.807 1535.54 299.369 1523.09 Q303.259 1519.2 308.262 1517.31 Q313.264 1515.31 316.599 1515.09 Q319.823 1514.86 326.27 1514.86 L371.737 1514.86 Q373.071 1514.86 375.294 1514.42 Q377.518 1513.98 380.408 1511.97 Q383.187 1509.86 383.187 1506.42 Q383.187 1498.19 368.624 1498.3 L355.84 1498.3 L355.84 1492.52 L368.624 1492.52 Q380.741 1492.52 385.521 1498.97 Q390.19 1505.3 390.19 1511.2 Q390.19 1518.76 384.632 1523.54 Q379.074 1528.32 371.515 1528.98 Q380.186 1532.43 385.855 1540.32 Q391.413 1548.1 391.413 1558.77 Q391.413 1567 389.301 1574.78 Q387.3 1582.45 381.631 1588.9 Q375.85 1595.24 367.179 1595.24 M366.957 1577.67 Q375.405 1577.67 380.853 1571.67 Q386.3 1565.67 386.3 1557.22 Q386.3 1547.66 378.963 1539.1 Q371.515 1530.54 356.952 1530.54 L334.163 1530.54 Q335.053 1555.77 345.169 1566.78 Q355.173 1577.67 366.957 1577.67 Z" fill="#000000" fill-rule="nonzero" fill-opacity="1" /><path clip-path="url(#clip810)" d="M388.856 1483.4 L381.853 1483.4 Q381.853 1471.29 380.408 1468.51 Q378.852 1465.73 371.515 1465.73 L253.124 1465.73 Q244.675 1465.73 242.563 1468.73 Q240.451 1471.62 240.451 1483.4 L233.336 1483.4 L230.891 1450.72 L371.515 1450.72 Q378.852 1450.72 380.408 1447.83 Q381.853 1444.94 381.853 1432.94 L388.856 1432.94 Q388.856 1435.71 388.634 1441.5 Q388.412 1447.28 388.301 1451.5 Q388.189 1455.72 388.189 1458.17 Q388.189 1460.84 388.856 1483.4 Z" fill="#000000" fill-rule="nonzero" fill-opacity="1" /><path clip-path="url(#clip810)" d="M388.856 1345.89 L381.853 1345.89 Q381.853 1333.78 380.408 1331 Q378.852 1328.11 371.515 1328.11 L310.485 1328.11 Q302.036 1328.11 299.924 1331.11 Q297.812 1334 297.812 1345.89 L290.698 1345.89 L288.252 1314.21 L313.264 1314.21 Q303.482 1310.99 295.922 1304.21 Q288.252 1297.31 288.252 1286.2 Q288.252 1278.86 292.365 1274.19 Q296.478 1269.41 302.148 1269.41 Q307.15 1269.41 309.707 1272.52 Q312.153 1275.53 312.153 1279.19 Q312.153 1283.31 309.596 1286.2 Q306.928 1288.98 302.37 1288.98 Q299.591 1288.98 297.479 1287.75 Q295.255 1286.42 294.477 1285.42 Q293.699 1284.42 293.477 1283.75 Q293.254 1284.2 293.254 1286.2 Q293.254 1298.76 305.816 1305.99 Q318.267 1313.1 336.053 1313.1 L371.07 1313.1 Q377.629 1313.1 379.741 1310.43 Q381.853 1307.65 381.853 1295.76 L381.853 1290.98 L388.856 1290.98 Q388.189 1300.09 388.189 1319.88 Q388.189 1322.66 388.301 1327 Q388.412 1331.33 388.634 1337 Q388.856 1342.67 388.856 1345.89 Z" fill="#000000" fill-rule="nonzero" fill-opacity="1" /><path clip-path="url(#clip810)" d="M367.179 1253.74 Q347.837 1253.74 337.609 1230.95 Q331.051 1217.28 329.383 1189.04 L321.046 1189.04 Q306.928 1189.04 299.48 1196.49 Q291.92 1203.82 291.92 1213.16 Q291.92 1229.84 302.37 1237.84 Q302.592 1231.06 306.038 1228.61 Q309.373 1226.17 312.82 1226.17 Q317.377 1226.17 320.379 1229.06 Q323.269 1231.84 323.269 1236.62 Q323.269 1241.18 320.49 1244.18 Q317.6 1247.18 312.597 1247.18 Q301.481 1247.18 294.144 1237.17 Q286.807 1227.06 286.807 1212.72 Q286.807 1194.04 299.369 1181.59 Q303.259 1177.7 308.262 1175.81 Q313.264 1173.81 316.599 1173.59 Q319.823 1173.37 326.27 1173.37 L371.737 1173.37 Q373.071 1173.37 375.294 1172.92 Q377.518 1172.48 380.408 1170.47 Q383.187 1168.36 383.187 1164.92 Q383.187 1156.69 368.624 1156.8 L355.84 1156.8 L355.84 1151.02 L368.624 1151.02 Q380.741 1151.02 385.521 1157.47 Q390.19 1163.81 390.19 1169.7 Q390.19 1177.26 384.632 1182.04 Q379.074 1186.82 371.515 1187.48 Q380.186 1190.93 385.855 1198.82 Q391.413 1206.6 391.413 1217.28 Q391.413 1225.5 389.301 1233.28 Q387.3 1240.95 381.631 1247.4 Q375.85 1253.74 367.179 1253.74 M366.957 1236.17 Q375.405 1236.17 380.853 1230.17 Q386.3 1224.17 386.3 1215.72 Q386.3 1206.16 378.963 1197.6 Q371.515 1189.04 356.952 1189.04 L334.163 1189.04 Q335.053 1214.27 345.169 1225.28 Q355.173 1236.17 366.957 1236.17 Z" fill="#000000" fill-rule="nonzero" fill-opacity="1" /><path clip-path="url(#clip810)" d="M339.944 1141.68 Q318.267 1141.68 303.259 1126.56 Q288.252 1111.45 288.252 1090.99 Q288.252 1073.65 302.37 1062.31 L253.124 1062.31 Q244.675 1062.31 242.563 1065.31 Q240.451 1068.2 240.451 1079.99 L233.336 1079.99 L230.891 1047.19 L369.069 1047.19 Q377.518 1047.19 379.741 1044.3 Q381.853 1041.3 381.853 1029.52 L388.856 1029.52 L391.413 1062.98 L376.295 1062.98 Q391.302 1074.76 391.413 1093.44 Q391.413 1113 376.406 1127.34 Q361.399 1141.68 339.944 1141.68 M340.166 1122.79 Q361.287 1122.79 371.737 1116.23 Q386.3 1107.11 386.3 1092.33 Q386.3 1075.43 370.403 1065.42 Q366.512 1062.87 361.954 1062.98 L315.265 1062.98 Q310.707 1062.98 306.928 1065.42 Q293.254 1074.76 293.254 1089.99 Q293.254 1105.89 307.817 1115.78 Q318.711 1122.79 340.166 1122.79 Z" fill="#000000" fill-rule="nonzero" fill-opacity="1" /><path clip-path="url(#clip810)" d="M388.856 1015.62 L381.853 1015.62 Q381.853 1003.5 380.408 1000.73 Q378.852 997.947 371.515 997.947 L310.263 997.947 Q301.814 997.947 299.813 1000.84 Q297.812 1003.62 297.812 1014.73 L290.698 1014.73 L288.252 982.939 L371.737 982.939 Q378.518 982.939 380.186 980.494 Q381.853 978.048 381.853 966.932 L388.856 966.932 Q388.189 990.165 388.189 990.61 Q388.189 993.722 388.856 1015.62 M248.566 1006.06 Q244.008 1006.06 240.34 1002.62 Q236.56 999.058 236.56 994.056 Q236.56 989.053 240.006 985.496 Q243.341 981.939 248.677 981.939 Q253.902 981.939 257.348 985.496 Q260.683 989.053 260.683 994.056 Q260.683 999.281 257.015 1002.73 Q253.346 1006.06 248.566 1006.06 Z" fill="#000000" fill-rule="nonzero" fill-opacity="1" /><path clip-path="url(#clip810)" d="M297.812 952.814 L290.698 952.814 L288.252 919.353 L363.844 919.353 Q369.291 919.353 372.515 918.908 Q375.628 918.464 379.296 916.685 Q382.965 914.795 384.632 910.571 Q386.3 906.235 386.3 899.343 Q386.3 887.004 376.184 879.445 Q366.068 871.774 351.06 871.774 L310.485 871.774 Q302.036 871.774 299.924 874.776 Q297.812 877.777 297.812 889.561 L290.698 889.561 L288.252 856.1 L369.069 856.1 Q377.518 856.1 379.741 853.21 Q381.853 850.208 381.853 838.314 L388.856 838.314 L391.413 871.107 L370.848 871.107 Q391.302 880.667 391.413 900.455 Q391.413 910.46 388.856 917.352 Q386.3 924.133 383.187 927.579 Q379.963 931.025 373.849 932.915 Q367.735 934.694 363.955 934.916 Q360.176 935.138 352.839 935.138 L318.711 935.138 Q303.259 935.138 300.591 937.362 Q297.812 939.585 297.812 952.814 Z" fill="#000000" fill-rule="nonzero" fill-opacity="1" /><path clip-path="url(#clip810)" d="M385.855 826.308 L355.84 826.308 Q353.284 826.308 352.394 826.197 Q351.505 826.085 350.838 825.418 Q350.171 824.751 350.171 823.417 Q350.171 821.861 350.838 821.305 Q351.505 820.638 354.062 820.194 Q369.736 816.748 378.073 809.411 Q386.3 801.963 386.3 788.512 Q386.3 775.728 380.63 769.28 Q374.961 762.832 365.623 762.832 Q348.948 762.832 344.724 786.511 Q341.945 800.184 340.166 805.853 Q338.276 811.523 334.163 816.525 Q326.159 826.308 314.82 826.308 Q303.482 826.308 295.144 817.748 Q286.807 809.077 286.807 789.957 Q286.807 777.173 293.254 768.502 Q291.253 765.945 289.586 764.611 Q286.807 761.61 286.807 760.053 Q286.807 758.275 288.03 757.941 Q289.141 757.608 292.365 757.608 L315.265 757.608 Q317.822 757.608 318.711 757.719 Q319.601 757.83 320.268 758.497 Q320.823 759.164 320.823 760.609 Q320.823 763.166 318.711 763.277 Q291.142 765.056 291.142 789.957 Q291.142 803.408 296.367 809.411 Q301.481 815.414 308.484 815.414 Q312.375 815.414 315.376 813.635 Q318.267 811.745 320.045 809.411 Q321.713 806.965 323.38 802.518 Q324.936 798.072 325.492 795.404 Q326.048 792.625 327.16 787.4 Q330.606 769.169 338.054 761.498 Q347.614 751.938 359.731 751.938 Q373.182 751.938 382.298 761.054 Q391.413 770.169 391.413 788.512 Q391.413 803.297 381.52 813.635 Q382.854 814.969 384.076 815.969 Q385.188 816.97 385.633 817.415 Q386.077 817.748 386.411 817.859 Q386.633 817.97 386.855 818.193 Q391.413 822.75 391.413 823.862 Q391.413 825.641 390.19 825.974 Q389.079 826.308 385.855 826.308 Z" fill="#000000" fill-rule="nonzero" fill-opacity="1" /><path clip-path="url(#clip810)" d="M753.132 240.611 L753.132 195.034 Q753.132 192.477 753.243 191.588 Q753.355 190.698 754.022 190.031 Q754.689 189.364 756.023 189.364 Q758.579 189.364 758.802 191.699 Q759.469 214.265 772.92 226.716 Q786.148 239.055 808.826 239.055 Q822.499 239.055 830.948 229.272 Q839.396 219.379 839.396 206.484 Q839.396 194.144 832.282 185.473 Q829.28 181.583 825.501 179.137 Q821.832 176.58 819.498 175.802 Q817.275 175.024 812.939 173.912 Q784.703 167.131 782.925 166.353 Q769.474 161.795 761.247 150.345 Q753.132 138.784 753.132 124.666 Q753.132 106.435 765.916 93.5399 Q778.811 80.5336 797.487 80.5336 Q806.825 80.5336 814.607 83.535 Q822.499 86.4253 825.723 89.0933 Q828.947 91.7612 833.949 96.5413 L841.842 83.535 Q843.621 80.5336 845.288 80.5336 Q847.067 80.5336 847.4 81.6452 Q847.845 82.6457 847.845 85.9807 L847.845 131.781 Q847.845 134.337 847.734 135.227 Q847.623 136.116 846.845 136.672 Q846.178 137.228 844.844 137.228 Q842.62 137.228 842.064 134.56 Q835.728 86.9811 797.71 86.9811 Q784.703 86.9811 776.144 95.7632 Q767.695 104.434 767.695 116.773 Q767.695 126.778 773.92 135.004 Q780.145 143.12 790.706 145.676 L819.831 152.68 Q834.394 156.126 844.177 169.021 Q853.959 181.916 853.959 198.702 Q853.959 218.045 841.286 232.052 Q828.725 246.058 809.048 246.058 Q794.93 246.058 784.036 241.389 Q773.142 236.721 767.25 230.162 Q762.693 237.721 759.691 241.945 L759.024 243.057 Q757.245 246.058 755.578 246.058 Q753.799 246.058 753.466 244.947 Q753.132 243.835 753.132 240.611 Z" fill="#000000" fill-rule="nonzero" fill-opacity="1" /><path clip-path="url(#clip810)" d="M872.968 278.185 Q885.085 278.185 887.864 276.629 Q890.755 275.184 890.755 267.958 L890.755 161.351 Q890.755 153.791 887.864 151.902 Q885.085 150.012 872.968 150.012 L872.968 142.897 L905.762 140.452 L905.762 155.459 Q919.435 140.452 937.666 140.452 Q957.009 140.452 971.127 155.459 Q985.245 170.466 985.245 191.921 Q985.245 213.598 970.238 228.606 Q955.231 243.613 934.443 243.613 Q923.104 243.613 915.433 237.832 Q907.874 231.94 906.429 227.605 L906.429 229.717 L906.429 267.958 Q906.429 275.295 909.319 276.74 Q912.21 278.185 924.215 278.185 L924.215 285.189 Q900.315 284.522 898.536 284.522 Q896.313 284.522 872.968 285.189 L872.968 278.185 M906.429 215.155 Q906.429 218.601 906.874 219.823 Q907.43 221.046 909.653 224.715 Q918.657 238.499 933.331 238.499 Q933.442 238.499 933.553 238.499 Q946.56 238.499 956.453 225.271 Q966.347 211.931 966.347 191.921 Q966.347 172.801 957.343 159.461 Q948.338 146.121 935.888 146.121 Q926.995 146.121 919.213 150.901 Q911.431 155.681 906.429 164.352 L906.429 215.155 Z" fill="#000000" fill-rule="nonzero" fill-opacity="1" /><path clip-path="url(#clip810)" d="M1005.59 190.921 Q1005.59 169.466 1019.37 154.236 Q1033.16 139.006 1052.94 139.006 Q1072.95 139.006 1083.29 152.013 Q1093.74 165.019 1093.74 183.695 Q1093.74 187.141 1092.85 187.808 Q1091.96 188.475 1088.07 188.475 L1024.49 188.475 Q1024.49 211.708 1031.38 222.603 Q1040.94 237.832 1057.06 237.832 Q1059.28 237.832 1061.95 237.388 Q1064.62 236.943 1070.06 235.053 Q1075.51 233.052 1080.29 227.827 Q1085.07 222.603 1087.85 214.376 Q1088.52 211.153 1090.74 211.264 Q1093.74 211.264 1093.74 213.932 Q1093.74 215.933 1091.52 220.49 Q1089.41 224.937 1085.29 230.273 Q1081.18 235.609 1073.18 239.611 Q1065.28 243.613 1055.72 243.613 Q1035.71 243.613 1020.6 228.494 Q1005.59 213.265 1005.59 190.921 M1024.71 183.695 L1078.73 183.695 Q1078.73 178.915 1077.85 173.579 Q1077.07 168.243 1074.62 160.906 Q1072.29 153.458 1066.73 148.789 Q1061.17 144.12 1052.94 144.12 Q1049.28 144.12 1045.27 145.676 Q1041.38 147.233 1036.6 151.012 Q1031.82 154.792 1028.49 163.352 Q1025.15 171.911 1024.71 183.695 Z" fill="#000000" fill-rule="nonzero" fill-opacity="1" /><path clip-path="url(#clip810)" d="M1122.53 228.606 Q1108.08 213.487 1108.08 191.921 Q1108.08 170.244 1122.31 154.681 Q1136.54 139.006 1157.44 139.006 Q1171.34 139.006 1181.79 145.676 Q1192.23 152.235 1192.23 163.463 Q1192.23 168.465 1189.23 171.355 Q1186.34 174.135 1181.79 174.135 Q1177 174.135 1174.11 171.244 Q1171.34 168.243 1171.34 163.685 Q1171.34 161.684 1172 159.683 Q1172.67 157.682 1175.12 155.57 Q1177.67 153.458 1182.01 153.124 Q1173.89 144.787 1158.11 144.787 Q1157.88 144.787 1157.66 144.787 Q1146.1 144.787 1136.54 155.681 Q1126.98 166.575 1126.98 191.476 Q1126.98 204.483 1130.09 214.043 Q1133.32 223.492 1138.54 228.383 Q1143.77 233.274 1148.88 235.609 Q1153.99 237.832 1159 237.832 Q1181.34 237.832 1188.9 213.932 Q1189.57 211.708 1191.79 211.708 Q1194.79 211.708 1194.79 213.932 Q1194.79 215.043 1193.9 217.934 Q1193.01 220.824 1190.23 225.382 Q1187.45 229.939 1183.45 233.941 Q1179.56 237.832 1172.56 240.723 Q1165.67 243.613 1157 243.613 Q1136.99 243.613 1122.53 228.606 Z" fill="#000000" fill-rule="nonzero" fill-opacity="1" /><path clip-path="url(#clip810)" d="M1205.69 150.012 L1205.69 145.009 Q1216.14 144.565 1223.03 137.228 Q1230.03 129.78 1232.37 120.664 Q1234.81 111.549 1235.03 100.988 L1240.7 100.988 L1240.7 142.897 L1273.27 142.897 L1273.27 150.012 L1240.7 150.012 L1240.7 213.265 Q1240.7 237.832 1256.04 237.832 Q1262.6 237.832 1266.94 231.162 Q1271.27 224.381 1271.27 212.375 L1271.27 199.814 L1276.94 199.814 L1276.94 212.82 Q1276.94 225.159 1271.27 234.386 Q1265.6 243.613 1254.38 243.613 Q1250.26 243.613 1246.15 242.501 Q1242.15 241.501 1236.81 238.833 Q1231.59 236.054 1228.25 229.384 Q1225.03 222.603 1225.03 212.82 L1225.03 150.012 L1205.69 150.012 Z" fill="#000000" fill-rule="nonzero" fill-opacity="1" /><path clip-path="url(#clip810)" d="M1295.95 241.056 L1295.95 234.053 Q1308.07 234.053 1310.85 232.607 Q1313.74 231.051 1313.74 223.714 L1313.74 162.685 Q1313.74 154.236 1310.74 152.124 Q1307.85 150.012 1295.95 150.012 L1295.95 142.897 L1327.63 140.452 L1327.63 165.464 Q1330.86 155.681 1337.64 148.122 Q1344.53 140.452 1355.65 140.452 Q1362.98 140.452 1367.65 144.565 Q1372.43 148.678 1372.43 154.347 Q1372.43 159.35 1369.32 161.906 Q1366.32 164.352 1362.65 164.352 Q1358.54 164.352 1355.65 161.795 Q1352.87 159.127 1352.87 154.57 Q1352.87 151.79 1354.09 149.678 Q1355.42 147.455 1356.43 146.677 Q1357.43 145.899 1358.09 145.676 Q1357.65 145.454 1355.65 145.454 Q1343.09 145.454 1335.86 158.016 Q1328.75 170.466 1328.75 188.253 L1328.75 223.27 Q1328.75 229.828 1331.41 231.94 Q1334.19 234.053 1346.09 234.053 L1350.87 234.053 L1350.87 241.056 Q1341.75 240.389 1321.96 240.389 Q1319.19 240.389 1314.85 240.5 Q1310.51 240.611 1304.84 240.834 Q1299.18 241.056 1295.95 241.056 Z" fill="#000000" fill-rule="nonzero" fill-opacity="1" /><path clip-path="url(#clip810)" d="M1388.11 219.379 Q1388.11 200.036 1410.9 189.809 Q1424.57 183.25 1452.81 181.583 L1452.81 173.245 Q1452.81 159.127 1445.36 151.679 Q1438.02 144.12 1428.68 144.12 Q1412.01 144.12 1404 154.57 Q1410.79 154.792 1413.23 158.238 Q1415.68 161.573 1415.68 165.019 Q1415.68 169.577 1412.79 172.578 Q1410.01 175.469 1405.23 175.469 Q1400.67 175.469 1397.67 172.689 Q1394.67 169.799 1394.67 164.797 Q1394.67 153.68 1404.67 146.343 Q1414.79 139.006 1429.13 139.006 Q1447.8 139.006 1460.25 151.568 Q1464.14 155.459 1466.03 160.461 Q1468.04 165.464 1468.26 168.799 Q1468.48 172.022 1468.48 178.47 L1468.48 223.937 Q1468.48 225.271 1468.92 227.494 Q1469.37 229.717 1471.37 232.607 Q1473.48 235.387 1476.93 235.387 Q1485.15 235.387 1485.04 220.824 L1485.04 208.04 L1490.82 208.04 L1490.82 220.824 Q1490.82 232.941 1484.38 237.721 Q1478.04 242.39 1472.15 242.39 Q1464.59 242.39 1459.81 236.832 Q1455.03 231.273 1454.36 223.714 Q1450.92 232.385 1443.02 238.055 Q1435.24 243.613 1424.57 243.613 Q1416.34 243.613 1408.56 241.501 Q1400.89 239.5 1394.44 233.83 Q1388.11 228.05 1388.11 219.379 M1405.67 219.156 Q1405.67 227.605 1411.67 233.052 Q1417.68 238.499 1426.13 238.499 Q1435.69 238.499 1444.25 231.162 Q1452.81 223.714 1452.81 209.152 L1452.81 186.363 Q1427.57 187.252 1416.57 197.368 Q1405.67 207.373 1405.67 219.156 Z" fill="#000000" fill-rule="nonzero" fill-opacity="1" /><path clip-path="url(#clip810)" d="M1499.94 241.056 L1499.94 234.053 Q1512.06 234.053 1514.84 232.607 Q1517.61 231.051 1517.61 223.714 L1517.61 105.323 Q1517.61 96.8748 1514.61 94.7627 Q1511.72 92.6506 1499.94 92.6506 L1499.94 85.536 L1532.62 83.0904 L1532.62 223.714 Q1532.62 231.051 1535.51 232.607 Q1538.4 234.053 1550.41 234.053 L1550.41 241.056 Q1547.63 241.056 1541.85 240.834 Q1536.07 240.611 1531.84 240.5 Q1527.62 240.389 1525.17 240.389 Q1522.51 240.389 1499.94 241.056 Z" fill="#000000" fill-rule="nonzero" fill-opacity="1" /><path clip-path="url(#clip810)" d="M1637.45 241.056 L1637.45 234.053 Q1649.57 234.053 1652.35 232.607 Q1655.24 231.051 1655.24 223.714 L1655.24 162.685 Q1655.24 154.236 1652.24 152.124 Q1649.35 150.012 1637.45 150.012 L1637.45 142.897 L1669.13 140.452 L1669.13 165.464 Q1672.36 155.681 1679.14 148.122 Q1686.03 140.452 1697.15 140.452 Q1704.48 140.452 1709.15 144.565 Q1713.93 148.678 1713.93 154.347 Q1713.93 159.35 1710.82 161.906 Q1707.82 164.352 1704.15 164.352 Q1700.04 164.352 1697.15 161.795 Q1694.37 159.127 1694.37 154.57 Q1694.37 151.79 1695.59 149.678 Q1696.92 147.455 1697.92 146.677 Q1698.93 145.899 1699.59 145.676 Q1699.15 145.454 1697.15 145.454 Q1684.58 145.454 1677.36 158.016 Q1670.24 170.466 1670.24 188.253 L1670.24 223.27 Q1670.24 229.828 1672.91 231.94 Q1675.69 234.053 1687.59 234.053 L1692.37 234.053 L1692.37 241.056 Q1683.25 240.389 1663.46 240.389 Q1660.68 240.389 1656.35 240.5 Q1652.01 240.611 1646.34 240.834 Q1640.67 241.056 1637.45 241.056 Z" fill="#000000" fill-rule="nonzero" fill-opacity="1" /><path clip-path="url(#clip810)" d="M1729.61 219.379 Q1729.61 200.036 1752.4 189.809 Q1766.07 183.25 1794.3 181.583 L1794.3 173.245 Q1794.3 159.127 1786.86 151.679 Q1779.52 144.12 1770.18 144.12 Q1753.51 144.12 1745.5 154.57 Q1752.28 154.792 1754.73 158.238 Q1757.18 161.573 1757.18 165.019 Q1757.18 169.577 1754.29 172.578 Q1751.51 175.469 1746.73 175.469 Q1742.17 175.469 1739.17 172.689 Q1736.17 169.799 1736.17 164.797 Q1736.17 153.68 1746.17 146.343 Q1756.29 139.006 1770.63 139.006 Q1789.3 139.006 1801.75 151.568 Q1805.64 155.459 1807.53 160.461 Q1809.53 165.464 1809.76 168.799 Q1809.98 172.022 1809.98 178.47 L1809.98 223.937 Q1809.98 225.271 1810.42 227.494 Q1810.87 229.717 1812.87 232.607 Q1814.98 235.387 1818.43 235.387 Q1826.65 235.387 1826.54 220.824 L1826.54 208.04 L1832.32 208.04 L1832.32 220.824 Q1832.32 232.941 1825.88 237.721 Q1819.54 242.39 1813.65 242.39 Q1806.09 242.39 1801.31 236.832 Q1796.53 231.273 1795.86 223.714 Q1792.42 232.385 1784.52 238.055 Q1776.74 243.613 1766.07 243.613 Q1757.84 243.613 1750.06 241.501 Q1742.39 239.5 1735.94 233.83 Q1729.61 228.05 1729.61 219.379 M1747.17 219.156 Q1747.17 227.605 1753.17 233.052 Q1759.18 238.499 1767.63 238.499 Q1777.19 238.499 1785.75 231.162 Q1794.3 223.714 1794.3 209.152 L1794.3 186.363 Q1769.07 187.252 1758.07 197.368 Q1747.17 207.373 1747.17 219.156 Z" fill="#000000" fill-rule="nonzero" fill-opacity="1" /><path clip-path="url(#clip810)" d="M1841.66 192.143 Q1841.66 170.466 1856.78 155.459 Q1871.9 140.452 1892.35 140.452 Q1909.69 140.452 1921.03 154.57 L1921.03 105.323 Q1921.03 96.8748 1918.03 94.7627 Q1915.14 92.6506 1903.36 92.6506 L1903.36 85.536 L1936.15 83.0904 L1936.15 221.269 Q1936.15 229.717 1939.04 231.94 Q1942.04 234.053 1953.83 234.053 L1953.83 241.056 L1920.37 243.613 L1920.37 228.494 Q1908.58 243.502 1889.91 243.613 Q1870.34 243.613 1856 228.606 Q1841.66 213.598 1841.66 192.143 M1860.56 192.366 Q1860.56 213.487 1867.12 223.937 Q1876.23 238.499 1891.02 238.499 Q1907.92 238.499 1917.92 222.603 Q1920.48 218.712 1920.37 214.154 L1920.37 167.465 Q1920.37 162.907 1917.92 159.127 Q1908.58 145.454 1893.35 145.454 Q1877.46 145.454 1867.56 160.017 Q1860.56 170.911 1860.56 192.366 Z" fill="#000000" fill-rule="nonzero" fill-opacity="1" /><path clip-path="url(#clip810)" d="M1967.72 241.056 L1967.72 234.053 Q1979.84 234.053 1982.62 232.607 Q1985.4 231.051 1985.4 223.714 L1985.4 162.462 Q1985.4 154.014 1982.51 152.013 Q1979.73 150.012 1968.61 150.012 L1968.61 142.897 L2000.4 140.452 L2000.4 223.937 Q2000.4 230.718 2002.85 232.385 Q2005.3 234.053 2016.41 234.053 L2016.41 241.056 Q1993.18 240.389 1992.73 240.389 Q1989.62 240.389 1967.72 241.056 M1977.28 100.766 Q1977.28 96.2079 1980.73 92.5394 Q1984.29 88.7598 1989.29 88.7598 Q1994.29 88.7598 1997.85 92.2059 Q2001.41 95.5409 2001.41 100.877 Q2001.41 106.102 1997.85 109.548 Q1994.29 112.883 1989.29 112.883 Q1984.06 112.883 1980.62 109.214 Q1977.28 105.546 1977.28 100.766 Z" fill="#000000" fill-rule="nonzero" fill-opacity="1" /><path clip-path="url(#clip810)" d="M2030.53 150.012 L2030.53 142.897 L2063.99 140.452 L2063.99 216.044 Q2063.99 221.491 2064.44 224.715 Q2064.88 227.827 2066.66 231.496 Q2068.55 235.164 2072.77 236.832 Q2077.11 238.499 2084 238.499 Q2096.34 238.499 2103.9 228.383 Q2111.57 218.267 2111.57 203.26 L2111.57 162.685 Q2111.57 154.236 2108.57 152.124 Q2105.57 150.012 2093.78 150.012 L2093.78 142.897 L2127.24 140.452 L2127.24 221.269 Q2127.24 229.717 2130.13 231.94 Q2133.14 234.053 2145.03 234.053 L2145.03 241.056 L2112.24 243.613 L2112.24 223.047 Q2102.68 243.502 2082.89 243.613 Q2072.88 243.613 2065.99 241.056 Q2059.21 238.499 2055.77 235.387 Q2052.32 232.163 2050.43 226.049 Q2048.65 219.935 2048.43 216.155 Q2048.21 212.375 2048.21 205.039 L2048.21 170.911 Q2048.21 155.459 2045.98 152.791 Q2043.76 150.012 2030.53 150.012 Z" fill="#000000" fill-rule="nonzero" fill-opacity="1" /><path clip-path="url(#clip810)" d="M2157.04 238.055 L2157.04 208.04 Q2157.04 205.483 2157.15 204.594 Q2157.26 203.705 2157.93 203.038 Q2158.59 202.371 2159.93 202.371 Q2161.48 202.371 2162.04 203.038 Q2162.71 203.705 2163.15 206.261 Q2166.6 221.936 2173.93 230.273 Q2181.38 238.499 2194.83 238.499 Q2207.62 238.499 2214.06 232.83 Q2220.51 227.16 2220.51 217.822 Q2220.51 201.148 2196.83 196.923 Q2183.16 194.144 2177.49 192.366 Q2171.82 190.476 2166.82 186.363 Q2157.04 178.359 2157.04 167.02 Q2157.04 155.681 2165.6 147.344 Q2174.27 139.006 2193.39 139.006 Q2206.17 139.006 2214.84 145.454 Q2217.4 143.453 2218.73 141.786 Q2221.73 139.006 2223.29 139.006 Q2225.07 139.006 2225.4 140.229 Q2225.74 141.341 2225.74 144.565 L2225.74 167.465 Q2225.74 170.021 2225.63 170.911 Q2225.51 171.8 2224.85 172.467 Q2224.18 173.023 2222.74 173.023 Q2220.18 173.023 2220.07 170.911 Q2218.29 143.342 2193.39 143.342 Q2179.94 143.342 2173.93 148.567 Q2167.93 153.68 2167.93 160.684 Q2167.93 164.574 2169.71 167.576 Q2171.6 170.466 2173.93 172.245 Q2176.38 173.912 2180.83 175.58 Q2185.27 177.136 2187.94 177.692 Q2190.72 178.248 2195.94 179.359 Q2214.18 182.805 2221.85 190.254 Q2231.41 199.814 2231.41 211.931 Q2231.41 225.382 2222.29 234.497 Q2213.17 243.613 2194.83 243.613 Q2180.05 243.613 2169.71 233.719 Q2168.38 235.053 2167.37 236.276 Q2166.37 237.388 2165.93 237.832 Q2165.6 238.277 2165.49 238.61 Q2165.37 238.833 2165.15 239.055 Q2160.59 243.613 2159.48 243.613 Q2157.7 243.613 2157.37 242.39 Q2157.04 241.278 2157.04 238.055 Z" fill="#000000" fill-rule="nonzero" fill-opacity="1" /><path clip-path="url(#clip810)" d="M2319.12 150.012 L2319.12 142.897 Q2329.34 143.564 2341.24 143.564 Q2345.57 143.564 2366.03 142.897 L2366.03 150.012 Q2353.02 150.012 2353.02 155.904 Q2353.02 156.793 2354.35 159.794 L2379.92 223.27 L2403.16 165.241 Q2404.49 161.351 2404.49 159.794 Q2404.49 155.904 2401.82 153.124 Q2399.27 150.234 2393.6 150.012 L2393.6 142.897 Q2405.16 143.564 2413.38 143.564 Q2422.72 143.564 2430.39 142.897 L2430.39 150.012 Q2423.61 150.012 2418.83 153.124 Q2414.05 156.126 2412.49 158.794 Q2411.05 161.351 2409.49 165.241 L2379.7 239.277 Q2377.92 243.613 2374.92 243.613 Q2372.92 243.613 2372.03 242.723 Q2371.25 241.945 2370.14 239.277 L2337.35 158.46 Q2335.12 152.791 2332.23 151.457 Q2329.34 150.012 2319.12 150.012 Z" fill="#000000" fill-rule="nonzero" fill-opacity="1" /><path clip-path="url(#clip810)" d="M2442.29 238.055 L2442.29 208.04 Q2442.29 205.483 2442.4 204.594 Q2442.51 203.705 2443.18 203.038 Q2443.84 202.371 2445.18 202.371 Q2446.73 202.371 2447.29 203.038 Q2447.96 203.705 2448.4 206.261 Q2451.85 221.936 2459.18 230.273 Q2466.63 238.499 2480.08 238.499 Q2492.87 238.499 2499.31 232.83 Q2505.76 227.16 2505.76 217.822 Q2505.76 201.148 2482.08 196.923 Q2468.41 194.144 2462.74 192.366 Q2457.07 190.476 2452.07 186.363 Q2442.29 178.359 2442.29 167.02 Q2442.29 155.681 2450.85 147.344 Q2459.52 139.006 2478.64 139.006 Q2491.42 139.006 2500.09 145.454 Q2502.65 143.453 2503.98 141.786 Q2506.98 139.006 2508.54 139.006 Q2510.32 139.006 2510.65 140.229 Q2510.99 141.341 2510.99 144.565 L2510.99 167.465 Q2510.99 170.021 2510.88 170.911 Q2510.76 171.8 2510.1 172.467 Q2509.43 173.023 2507.98 173.023 Q2505.43 173.023 2505.32 170.911 Q2503.54 143.342 2478.64 143.342 Q2465.19 143.342 2459.18 148.567 Q2453.18 153.68 2453.18 160.684 Q2453.18 164.574 2454.96 167.576 Q2456.85 170.466 2459.18 172.245 Q2461.63 173.912 2466.08 175.58 Q2470.52 177.136 2473.19 177.692 Q2475.97 178.248 2481.19 179.359 Q2499.43 182.805 2507.1 190.254 Q2516.66 199.814 2516.66 211.931 Q2516.66 225.382 2507.54 234.497 Q2498.42 243.613 2480.08 243.613 Q2465.3 243.613 2454.96 233.719 Q2453.63 235.053 2452.62 236.276 Q2451.62 237.388 2451.18 237.832 Q2450.85 238.277 2450.73 238.61 Q2450.62 238.833 2450.4 239.055 Q2445.84 243.613 2444.73 243.613 Q2442.95 243.613 2442.62 242.39 Q2442.29 241.278 2442.29 238.055 Z" fill="#000000" fill-rule="nonzero" fill-opacity="1" /><path clip-path="url(#clip810)" d="M2547.12 237.388 Q2543.67 233.719 2543.67 228.939 Q2543.67 224.159 2547.12 220.713 Q2550.56 217.155 2555.79 217.155 Q2560.79 217.155 2564.12 220.49 Q2567.57 223.714 2567.57 229.05 Q2567.57 234.275 2563.9 237.721 Q2560.34 241.056 2555.79 241.056 Q2550.56 241.056 2547.12 237.388 Z" fill="#000000" fill-rule="nonzero" fill-opacity="1" /><path clip-path="url(#clip810)" d="M2670.84 238.055 L2670.84 208.04 Q2670.84 205.483 2670.95 204.594 Q2671.06 203.705 2671.73 203.038 Q2672.4 202.371 2673.73 202.371 Q2675.29 202.371 2675.84 203.038 Q2676.51 203.705 2676.96 206.261 Q2680.4 221.936 2687.74 230.273 Q2695.19 238.499 2708.64 238.499 Q2721.42 238.499 2727.87 232.83 Q2734.32 227.16 2734.32 217.822 Q2734.32 201.148 2710.64 196.923 Q2696.97 194.144 2691.3 192.366 Q2685.63 190.476 2680.62 186.363 Q2670.84 178.359 2670.84 167.02 Q2670.84 155.681 2679.4 147.344 Q2688.07 139.006 2707.19 139.006 Q2719.98 139.006 2728.65 145.454 Q2731.2 143.453 2732.54 141.786 Q2735.54 139.006 2737.1 139.006 Q2738.87 139.006 2739.21 140.229 Q2739.54 141.341 2739.54 144.565 L2739.54 167.465 Q2739.54 170.021 2739.43 170.911 Q2739.32 171.8 2738.65 172.467 Q2737.99 173.023 2736.54 173.023 Q2733.98 173.023 2733.87 170.911 Q2732.09 143.342 2707.19 143.342 Q2693.74 143.342 2687.74 148.567 Q2681.74 153.68 2681.74 160.684 Q2681.74 164.574 2683.51 167.576 Q2685.4 170.466 2687.74 172.245 Q2690.18 173.912 2694.63 175.58 Q2699.08 177.136 2701.75 177.692 Q2704.52 178.248 2709.75 179.359 Q2727.98 182.805 2735.65 190.254 Q2745.21 199.814 2745.21 211.931 Q2745.21 225.382 2736.1 234.497 Q2726.98 243.613 2708.64 243.613 Q2693.85 243.613 2683.51 233.719 Q2682.18 235.053 2681.18 236.276 Q2680.18 237.388 2679.73 237.832 Q2679.4 238.277 2679.29 238.61 Q2679.18 238.833 2678.96 239.055 Q2674.4 243.613 2673.29 243.613 Q2671.51 243.613 2671.18 242.39 Q2670.84 241.278 2670.84 238.055 Z" fill="#000000" fill-rule="nonzero" fill-opacity="1" /><path clip-path="url(#clip810)" d="M2760.22 241.056 L2760.22 234.053 Q2772.34 234.053 2775.11 232.607 Q2777.89 231.051 2777.89 223.714 L2777.89 105.323 Q2777.89 96.8748 2774.89 94.7627 Q2772 92.6506 2760.22 92.6506 L2760.22 85.536 L2792.9 83.0904 L2792.9 162.24 L2793.12 162.24 Q2796.79 154.014 2805.02 147.233 Q2813.24 140.452 2825.92 140.452 Q2843.04 140.452 2849.82 148.9 Q2854.82 154.57 2855.82 160.906 Q2856.93 167.242 2856.93 183.695 L2856.93 227.16 Q2857.15 231.94 2860.82 233.052 Q2864.49 234.053 2874.72 234.053 L2874.72 241.056 Q2851.49 240.389 2849.15 240.389 Q2847.37 240.389 2823.47 241.056 L2823.47 234.053 Q2835.59 234.053 2838.37 232.607 Q2841.26 231.051 2841.26 223.714 L2841.26 170.688 Q2841.26 159.127 2837.7 152.346 Q2834.14 145.454 2824.36 145.454 Q2812.58 145.454 2803.13 155.348 Q2793.68 165.241 2793.68 181.916 L2793.68 223.714 Q2793.68 231.051 2796.46 232.607 Q2799.35 234.053 2811.35 234.053 L2811.35 241.056 Q2788.12 240.389 2785.9 240.389 Q2784.12 240.389 2760.22 241.056 Z" fill="#000000" fill-rule="nonzero" fill-opacity="1" /><path clip-path="url(#clip810)" d="M2886.72 241.056 L2886.72 234.053 Q2898.84 234.053 2901.62 232.607 Q2904.4 231.051 2904.4 223.714 L2904.4 162.462 Q2904.4 154.014 2901.51 152.013 Q2898.73 150.012 2887.61 150.012 L2887.61 142.897 L2919.41 140.452 L2919.41 223.937 Q2919.41 230.718 2921.85 232.385 Q2924.3 234.053 2935.41 234.053 L2935.41 241.056 Q2912.18 240.389 2911.74 240.389 Q2908.62 240.389 2886.72 241.056 M2896.28 100.766 Q2896.28 96.2079 2899.73 92.5394 Q2903.29 88.7598 2908.29 88.7598 Q2913.29 88.7598 2916.85 92.2059 Q2920.41 95.5409 2920.41 100.877 Q2920.41 106.102 2916.85 109.548 Q2913.29 112.883 2908.29 112.883 Q2903.07 112.883 2899.62 109.214 Q2896.28 105.546 2896.28 100.766 Z" fill="#000000" fill-rule="nonzero" fill-opacity="1" /><path clip-path="url(#clip810)" d="M2949.76 150.012 L2949.76 142.897 L2967.65 142.897 L2967.65 116.773 Q2967.65 99.8763 2978.55 90.2049 Q2989.55 80.5336 3003 80.5336 Q3011.9 80.5336 3017.68 85.3137 Q3023.46 90.0938 3023.46 96.5413 Q3023.46 100.877 3020.79 103.767 Q3018.23 106.546 3013.45 106.546 Q3008.89 106.546 3006.23 103.656 Q3003.67 100.766 3003.67 96.7637 Q3003.67 89.4268 3010.45 87.2035 Q3007.01 85.6472 3003 85.536 Q2994.78 85.536 2988.33 93.9845 Q2981.99 102.433 2981.99 116.551 L2981.99 142.897 L3008.67 142.897 L3008.67 150.012 L2982.77 150.012 L2982.77 223.27 Q2982.77 229.828 2985.44 231.94 Q2988.22 234.053 3000 234.053 L3004.78 234.053 L3004.78 241.056 Q2995.67 240.389 2975.88 240.389 Q2973.1 240.389 2968.76 240.5 Q2964.54 240.611 2958.76 240.834 Q2953.09 241.056 2949.98 241.056 L2949.98 234.053 Q2962.09 234.053 2964.87 232.607 Q2967.65 231.051 2967.65 223.714 L2967.65 150.012 L2949.76 150.012 Z" fill="#000000" fill-rule="nonzero" fill-opacity="1" /><path clip-path="url(#clip810)" d="M3015.9 150.012 L3015.9 145.009 Q3026.35 144.565 3033.24 137.228 Q3040.24 129.78 3042.58 120.664 Q3045.02 111.549 3045.25 100.988 L3050.92 100.988 L3050.92 142.897 L3083.49 142.897 L3083.49 150.012 L3050.92 150.012 L3050.92 213.265 Q3050.92 237.832 3066.26 237.832 Q3072.81 237.832 3077.15 231.162 Q3081.49 224.381 3081.49 212.375 L3081.49 199.814 L3087.16 199.814 L3087.16 212.82 Q3087.16 225.159 3081.49 234.386 Q3075.82 243.613 3064.59 243.613 Q3060.48 243.613 3056.36 242.501 Q3052.36 241.501 3047.02 238.833 Q3041.8 236.054 3038.46 229.384 Q3035.24 222.603 3035.24 212.82 L3035.24 150.012 L3015.9 150.012 Z" fill="#000000" fill-rule="nonzero" fill-opacity="1" /><path clip-path="url(#clip810)" d="M3122.62 237.388 Q3119.39 233.719 3119.39 228.939 Q3119.39 224.159 3122.51 220.602 Q3125.73 216.933 3131.51 216.933 Q3138.29 216.933 3142.18 223.492 Q3146.07 229.939 3146.07 240.834 Q3146.07 252.617 3141.29 263.511 Q3136.51 274.517 3131.84 279.741 Q3127.17 284.966 3125.28 284.966 Q3123.06 284.966 3123.06 282.521 Q3123.06 281.631 3124.62 279.964 Q3140.96 262.4 3141.07 240.834 Q3141.07 237.388 3140.63 237.388 L3140.07 237.832 Q3136.18 241.056 3131.51 241.056 Q3125.84 241.056 3122.62 237.388 Z" fill="#000000" fill-rule="nonzero" fill-opacity="1" /><path clip-path="url(#clip810)" d="M3246.12 241.056 L3246.12 234.053 L3251.57 234.053 Q3263.91 234.053 3266.69 232.052 Q3269.58 229.939 3269.58 223.27 L3269.58 103.989 Q3269.58 97.4307 3266.69 95.4297 Q3263.8 93.3176 3251.57 93.3176 L3246.12 93.3176 L3246.12 86.203 L3374.29 86.203 L3380.63 137.45 L3374.96 137.45 Q3373.41 124.444 3371.29 116.996 Q3369.29 109.437 3364.29 103.656 Q3359.4 97.8753 3351.28 95.652 Q3343.28 93.3176 3330.27 93.3176 L3300.93 93.3176 Q3293.14 93.3176 3291.48 94.985 Q3289.81 96.5413 3289.81 102.433 L3289.81 157.015 L3310.26 157.015 Q3325.94 157.015 3330.38 151.568 Q3334.83 146.121 3334.83 130.447 L3340.61 130.447 L3340.61 190.698 L3334.83 190.698 Q3334.83 175.246 3330.38 169.688 Q3325.94 164.13 3310.26 164.13 L3289.81 164.13 L3289.81 224.937 Q3289.81 230.829 3291.48 232.496 Q3293.26 234.053 3300.93 234.053 L3331.27 234.053 Q3341.06 234.053 3348.17 232.83 Q3355.4 231.496 3360.4 228.383 Q3365.4 225.159 3368.74 221.491 Q3372.18 217.822 3374.52 211.264 Q3376.96 204.594 3378.3 198.48 Q3379.74 192.366 3381.3 182.361 L3386.97 182.361 L3377.41 241.056 L3246.12 241.056 Z" fill="#000000" fill-rule="nonzero" fill-opacity="1" /><path clip-path="url(#clip810)" d="M3397.64 150.012 L3397.64 145.009 Q3408.09 144.565 3414.98 137.228 Q3421.98 129.78 3424.32 120.664 Q3426.76 111.549 3426.99 100.988 L3432.66 100.988 L3432.66 142.897 L3465.23 142.897 L3465.23 150.012 L3432.66 150.012 L3432.66 213.265 Q3432.66 237.832 3448 237.832 Q3454.56 237.832 3458.89 231.162 Q3463.23 224.381 3463.23 212.375 L3463.23 199.814 L3468.9 199.814 L3468.9 212.82 Q3468.9 225.159 3463.23 234.386 Q3457.56 243.613 3446.33 243.613 Q3442.22 243.613 3438.1 242.501 Q3434.1 241.501 3428.77 238.833 Q3423.54 236.054 3420.21 229.384 Q3416.98 222.603 3416.98 212.82 L3416.98 150.012 L3397.64 150.012 Z" fill="#000000" fill-rule="nonzero" fill-opacity="1" /><path clip-path="url(#clip810)" d="M3488.91 241.056 L3488.91 234.053 Q3501.02 234.053 3503.8 232.607 Q3506.58 231.051 3506.58 223.714 L3506.58 105.323 Q3506.58 96.8748 3503.58 94.7627 Q3500.69 92.6506 3488.91 92.6506 L3488.91 85.536 L3521.59 83.0904 L3521.59 162.24 L3521.81 162.24 Q3525.48 154.014 3533.71 147.233 Q3541.93 140.452 3554.6 140.452 Q3571.72 140.452 3578.5 148.9 Q3583.51 154.57 3584.51 160.906 Q3585.62 167.242 3585.62 183.695 L3585.62 227.16 Q3585.84 231.94 3589.51 233.052 Q3593.18 234.053 3603.41 234.053 L3603.41 241.056 Q3580.17 240.389 3577.84 240.389 Q3576.06 240.389 3552.16 241.056 L3552.16 234.053 Q3564.28 234.053 3567.05 232.607 Q3569.95 231.051 3569.95 223.714 L3569.95 170.688 Q3569.95 159.127 3566.39 152.346 Q3562.83 145.454 3553.05 145.454 Q3541.26 145.454 3531.82 155.348 Q3522.37 165.241 3522.37 181.916 L3522.37 223.714 Q3522.37 231.051 3525.15 232.607 Q3528.04 234.053 3540.04 234.053 L3540.04 241.056 Q3516.81 240.389 3514.59 240.389 Q3512.81 240.389 3488.91 241.056 Z" fill="#000000" fill-rule="nonzero" fill-opacity="1" /><path clip-path="url(#clip810)" d="M3617.41 219.379 Q3617.41 200.036 3640.2 189.809 Q3653.87 183.25 3682.11 181.583 L3682.11 173.245 Q3682.11 159.127 3674.66 151.679 Q3667.33 144.12 3657.99 144.12 Q3641.31 144.12 3633.31 154.57 Q3640.09 154.792 3642.54 158.238 Q3644.98 161.573 3644.98 165.019 Q3644.98 169.577 3642.09 172.578 Q3639.31 175.469 3634.53 175.469 Q3629.97 175.469 3626.97 172.689 Q3623.97 169.799 3623.97 164.797 Q3623.97 153.68 3633.98 146.343 Q3644.09 139.006 3658.43 139.006 Q3677.11 139.006 3689.56 151.568 Q3693.45 155.459 3695.34 160.461 Q3697.34 165.464 3697.56 168.799 Q3697.79 172.022 3697.79 178.47 L3697.79 223.937 Q3697.79 225.271 3698.23 227.494 Q3698.67 229.717 3700.68 232.607 Q3702.79 235.387 3706.23 235.387 Q3714.46 235.387 3714.35 220.824 L3714.35 208.04 L3720.13 208.04 L3720.13 220.824 Q3720.13 232.941 3713.68 237.721 Q3707.35 242.39 3701.45 242.39 Q3693.89 242.39 3689.11 236.832 Q3684.33 231.273 3683.67 223.714 Q3680.22 232.385 3672.33 238.055 Q3664.55 243.613 3653.87 243.613 Q3645.65 243.613 3637.87 241.501 Q3630.2 239.5 3623.75 233.83 Q3617.41 228.05 3617.41 219.379 M3634.98 219.156 Q3634.98 227.605 3640.98 233.052 Q3646.98 238.499 3655.43 238.499 Q3664.99 238.499 3673.55 231.162 Q3682.11 223.714 3682.11 209.152 L3682.11 186.363 Q3656.88 187.252 3645.87 197.368 Q3634.98 207.373 3634.98 219.156 Z" fill="#000000" fill-rule="nonzero" fill-opacity="1" /><path clip-path="url(#clip810)" d="M3729.02 241.056 L3729.02 234.053 Q3741.14 234.053 3743.92 232.607 Q3746.7 231.051 3746.7 223.714 L3746.7 162.685 Q3746.7 154.236 3743.7 152.124 Q3740.81 150.012 3729.02 150.012 L3729.02 142.897 L3761.04 140.452 L3761.04 164.352 Q3771.71 140.452 3794.72 140.452 Q3811.84 140.452 3818.62 148.9 Q3823.62 154.57 3824.62 160.906 Q3825.74 167.242 3825.74 183.695 L3825.74 227.16 Q3825.96 231.94 3829.63 233.052 Q3833.3 234.053 3843.52 234.053 L3843.52 241.056 Q3820.29 240.389 3817.95 240.389 Q3816.18 240.389 3792.28 241.056 L3792.28 234.053 Q3804.39 234.053 3807.17 232.607 Q3810.06 231.051 3810.06 223.714 L3810.06 170.688 Q3810.06 159.127 3806.5 152.346 Q3802.95 145.454 3793.16 145.454 Q3781.38 145.454 3771.93 155.348 Q3762.48 165.241 3762.48 181.916 L3762.48 223.714 Q3762.48 231.051 3765.26 232.607 Q3768.15 234.053 3780.16 234.053 L3780.16 241.056 Q3756.92 240.389 3754.7 240.389 Q3752.92 240.389 3729.02 241.056 Z" fill="#000000" fill-rule="nonzero" fill-opacity="1" /><path clip-path="url(#clip810)" d="M3854.31 190.921 Q3854.31 169.466 3868.09 154.236 Q3881.87 139.006 3901.66 139.006 Q3921.67 139.006 3932.01 152.013 Q3942.46 165.019 3942.46 183.695 Q3942.46 187.141 3941.57 187.808 Q3940.68 188.475 3936.79 188.475 L3873.2 188.475 Q3873.2 211.708 3880.1 222.603 Q3889.66 237.832 3905.78 237.832 Q3908 237.832 3910.67 237.388 Q3913.33 236.943 3918.78 235.053 Q3924.23 233.052 3929.01 227.827 Q3933.79 222.603 3936.57 214.376 Q3937.23 211.153 3939.46 211.264 Q3942.46 211.264 3942.46 213.932 Q3942.46 215.933 3940.24 220.49 Q3938.12 224.937 3934.01 230.273 Q3929.9 235.609 3921.89 239.611 Q3914 243.613 3904.44 243.613 Q3884.43 243.613 3869.31 228.494 Q3854.31 213.265 3854.31 190.921 M3873.43 183.695 L3927.45 183.695 Q3927.45 178.915 3926.56 173.579 Q3925.78 168.243 3923.34 160.906 Q3921 153.458 3915.45 148.789 Q3909.89 144.12 3901.66 144.12 Q3897.99 144.12 3893.99 145.676 Q3890.1 147.233 3885.32 151.012 Q3880.54 154.792 3877.21 163.352 Q3873.87 171.911 3873.43 183.695 Z" fill="#000000" fill-rule="nonzero" fill-opacity="1" /><path clip-path="url(#clip810)" d="M4047.29 184.139 Q4047.29 145.676 4061.63 114.661 Q4067.74 101.655 4076.3 90.7608 Q4084.86 79.8666 4090.53 75.0865 Q4096.2 70.3064 4097.76 70.3064 Q4099.98 70.3064 4100.09 72.5297 Q4100.09 73.6413 4097.09 76.4205 Q4060.41 113.772 4060.52 184.139 Q4060.52 254.729 4096.2 290.636 Q4100.09 294.526 4100.09 295.749 Q4100.09 297.973 4097.76 297.973 Q4096.2 297.973 4090.75 293.415 Q4085.31 288.857 4076.86 278.407 Q4068.41 267.958 4062.3 255.174 Q4047.29 224.159 4047.29 184.139 Z" fill="#000000" fill-rule="nonzero" fill-opacity="1" /><path clip-path="url(#clip810)" d="M4122.55 169.132 Q4122.55 133.337 4140.78 111.437 Q4159.01 89.4268 4182.47 89.4268 Q4196.14 89.4268 4203.7 96.4302 Q4211.37 103.322 4211.37 113.994 Q4211.37 119.886 4207.92 122.443 Q4204.48 125 4200.92 125 Q4196.81 125 4193.58 122.22 Q4190.36 119.441 4190.36 114.439 Q4190.36 104.212 4202.92 104.212 Q4197.03 95.0962 4182.91 95.0962 Q4178.57 95.0962 4174.13 96.4302 Q4169.68 97.653 4163.9 101.877 Q4158.12 106.102 4153.67 112.771 Q4149.23 119.441 4146.11 132.003 Q4143 144.565 4143 160.906 L4143 166.353 Q4152.34 143.787 4171.46 143.898 Q4190.58 143.898 4203.81 158.46 Q4217.04 173.023 4217.04 194.589 Q4217.04 216.711 4203.25 231.385 Q4189.47 246.058 4170.13 246.058 Q4161.45 246.058 4153.56 242.39 Q4145.78 238.833 4138.44 230.606 Q4131.22 222.38 4126.88 206.595 Q4122.55 190.809 4122.55 169.132 M4143.45 189.587 Q4143.45 211.931 4147.56 222.603 Q4148.23 224.381 4149.67 226.827 Q4151.23 229.272 4153.78 232.496 Q4156.45 235.609 4160.79 237.721 Q4165.12 239.722 4170.13 239.722 Q4185.36 239.722 4192.69 224.937 Q4196.58 216.711 4196.58 194.367 Q4196.58 171.578 4192.47 163.24 Q4185.47 149.122 4171.24 149.122 Q4161.68 149.122 4155.01 155.681 Q4148.45 162.24 4145.89 171.022 Q4143.45 179.804 4143.45 189.587 Z" fill="#000000" fill-rule="nonzero" fill-opacity="1" /><path clip-path="url(#clip810)" d="M4229.04 198.702 L4229.04 185.251 L4289.63 185.251 L4289.63 198.702 L4229.04 198.702 Z" fill="#000000" fill-rule="nonzero" fill-opacity="1" /><path clip-path="url(#clip810)" d="M4312.08 210.374 Q4312.08 203.593 4315.97 200.37 Q4319.87 197.146 4324.87 197.146 Q4330.09 197.146 4333.76 200.592 Q4337.54 203.927 4337.54 209.819 Q4337.54 216.155 4333.09 219.712 Q4328.76 223.27 4322.53 222.38 Q4327.98 231.496 4337.99 235.609 Q4348.1 239.722 4357.44 239.722 Q4367.22 239.722 4375.11 231.273 Q4383.12 222.825 4383.12 202.148 Q4383.12 184.584 4376.23 174.468 Q4369.44 164.352 4355.99 164.352 L4345.99 164.352 Q4342.54 164.352 4341.54 164.019 Q4340.54 163.685 4340.54 161.795 Q4340.54 159.572 4343.99 159.127 Q4347.43 159.127 4352.88 158.46 Q4366.11 158.016 4373.11 146.566 Q4379.45 135.894 4379.45 120.664 Q4379.45 106.769 4372.78 100.988 Q4366.22 95.0962 4357.66 95.0962 Q4349.66 95.0962 4340.88 98.4312 Q4332.09 101.766 4327.31 109.214 Q4341.43 109.214 4341.43 120.664 Q4341.43 125.667 4338.21 129.002 Q4335.09 132.225 4329.87 132.225 Q4324.87 132.225 4321.53 129.113 Q4318.2 125.889 4318.2 120.442 Q4318.2 107.436 4329.76 98.4312 Q4341.43 89.4268 4358.55 89.4268 Q4375.45 89.4268 4387.9 98.32 Q4400.46 107.213 4400.46 120.887 Q4400.46 134.337 4391.57 145.343 Q4382.67 156.348 4368.56 160.906 Q4385.9 164.352 4396.24 176.136 Q4406.57 187.808 4406.57 202.148 Q4406.57 219.935 4392.57 233.052 Q4378.56 246.058 4358.11 246.058 Q4339.21 246.058 4325.65 235.831 Q4312.08 225.604 4312.08 210.374 Z" fill="#000000" fill-rule="nonzero" fill-opacity="1" /><path clip-path="url(#clip810)" d="M4436.59 111.104 L4436.59 103.989 Q4463.94 103.989 4478.05 89.4268 Q4481.94 89.4268 4482.61 90.3161 Q4483.28 91.2054 4483.28 95.3185 L4483.28 223.047 Q4483.28 229.828 4486.61 231.94 Q4489.95 234.053 4504.51 234.053 L4511.74 234.053 L4511.74 241.056 Q4503.73 240.389 4474.83 240.389 Q4445.93 240.389 4438.03 241.056 L4438.03 234.053 L4445.26 234.053 Q4459.6 234.053 4463.05 232.052 Q4466.49 229.939 4466.49 223.047 L4466.49 105.101 Q4454.6 111.104 4436.59 111.104 Z" fill="#000000" fill-rule="nonzero" fill-opacity="1" /><path clip-path="url(#clip810)" d="M4566.32 221.936 Q4542.97 197.813 4542.97 163.24 Q4542.97 128.557 4566.54 104.545 Q4590.11 80.5336 4622.12 80.5336 Q4630.13 80.5336 4636.91 82.4234 Q4643.8 84.202 4649.25 87.8705 Q4654.69 91.4278 4657.47 93.8734 Q4660.36 96.2079 4664.25 100.099 L4675.7 83.3127 Q4677.48 80.5336 4679.26 80.5336 Q4681.15 80.5336 4681.49 81.6452 Q4681.82 82.6457 4681.82 85.9807 L4681.82 140.007 Q4681.82 143.675 4681.37 144.565 Q4680.93 145.454 4678.15 145.454 Q4675.93 145.454 4675.48 144.787 Q4675.04 144.12 4674.48 141.563 Q4671.04 116.996 4657.25 102.322 Q4643.58 87.6481 4624.9 87.6481 Q4619.46 87.6481 4613.34 88.871 Q4607.34 90.0938 4598.44 94.7627 Q4589.66 99.4316 4582.88 107.102 Q4576.21 114.661 4571.32 129.335 Q4566.43 143.898 4566.43 163.24 Q4566.43 182.361 4571.32 197.035 Q4576.21 211.708 4582.99 219.379 Q4589.89 226.938 4598.78 231.718 Q4607.78 236.498 4614.12 237.832 Q4620.57 239.055 4626.24 239.055 Q4630.13 239.055 4634.68 238.277 Q4639.24 237.388 4646.02 234.942 Q4652.92 232.385 4657.25 226.382 Q4661.59 220.379 4661.59 211.486 L4661.59 196.923 Q4661.59 190.142 4658.25 188.03 Q4654.92 185.918 4640.35 185.918 L4633.13 185.918 L4633.13 178.915 Q4641.35 179.582 4669.7 179.582 Q4672.26 179.582 4697.49 178.915 L4697.49 185.918 Q4686.6 185.918 4684.15 187.586 Q4681.82 189.142 4681.82 195.923 L4681.82 235.609 Q4681.82 240.834 4679.82 240.834 Q4678.04 240.834 4672.7 235.72 Q4667.48 230.606 4665.14 226.716 Q4659.7 236.276 4647.8 241.167 Q4636.02 246.058 4622.57 246.058 Q4589.77 246.058 4566.32 221.936 Z" fill="#000000" fill-rule="nonzero" fill-opacity="1" /><path clip-path="url(#clip810)" d="M4721.62 295.749 Q4721.62 294.638 4724.51 291.858 Q4761.19 254.507 4761.19 184.139 Q4761.19 113.55 4725.95 77.8656 Q4721.62 73.7525 4721.62 72.5297 Q4721.62 70.3064 4723.84 70.3064 Q4725.4 70.3064 4730.84 74.8641 Q4736.4 79.4219 4744.74 89.8714 Q4753.19 100.321 4759.41 113.105 Q4774.42 144.12 4774.42 184.139 Q4774.42 222.603 4760.08 253.618 Q4753.96 266.624 4745.41 277.518 Q4736.85 288.412 4731.18 293.192 Q4725.51 297.973 4723.84 297.973 Q4721.62 297.973 4721.62 295.749 Z" fill="#000000" fill-rule="nonzero" fill-opacity="1" /><polyline clip-path="url(#clip812)" style="stroke:#00008b; stroke-linecap:round; stroke-linejoin:round; stroke-width:12; stroke-opacity:1; fill:none" points="1021.09,659.22 1253.45,682.58 1485.81,728.274 1718.16,815.785 1950.52,976.888 2182.88,1253.51 2415.24,1677.68 2647.6,2228.66 2879.95,2291.47 3112.31,2194.32 3344.67,2114.61 3577.03,2058.3 3809.39,2017.87 4041.75,1991.51 4274.1,1976.93 4506.46,1969.62 "/>
<circle clip-path="url(#clip812)" cx="1021.09" cy="659.22" r="36" fill="#00008b" fill-rule="evenodd" fill-opacity="1" stroke="#000000" stroke-opacity="1" stroke-width="6.4"/>
<circle clip-path="url(#clip812)" cx="1253.45" cy="682.58" r="36" fill="#00008b" fill-rule="evenodd" fill-opacity="1" stroke="#000000" stroke-opacity="1" stroke-width="6.4"/>
<circle clip-path="url(#clip812)" cx="1485.81" cy="728.274" r="36" fill="#00008b" fill-rule="evenodd" fill-opacity="1" stroke="#000000" stroke-opacity="1" stroke-width="6.4"/>
<circle clip-path="url(#clip812)" cx="1718.16" cy="815.785" r="36" fill="#00008b" fill-rule="evenodd" fill-opacity="1" stroke="#000000" stroke-opacity="1" stroke-width="6.4"/>
<circle clip-path="url(#clip812)" cx="1950.52" cy="976.888" r="36" fill="#00008b" fill-rule="evenodd" fill-opacity="1" stroke="#000000" stroke-opacity="1" stroke-width="6.4"/>
<circle clip-path="url(#clip812)" cx="2182.88" cy="1253.51" r="36" fill="#00008b" fill-rule="evenodd" fill-opacity="1" stroke="#000000" stroke-opacity="1" stroke-width="6.4"/>
<circle clip-path="url(#clip812)" cx="2415.24" cy="1677.68" r="36" fill="#00008b" fill-rule="evenodd" fill-opacity="1" stroke="#000000" stroke-opacity="1" stroke-width="6.4"/>
<circle clip-path="url(#clip812)" cx="2647.6" cy="2228.66" r="36" fill="#00008b" fill-rule="evenodd" fill-opacity="1" stroke="#000000" stroke-opacity="1" stroke-width="6.4"/>
<circle clip-path="url(#clip812)" cx="2879.95" cy="2291.47" r="36" fill="#00008b" fill-rule="evenodd" fill-opacity="1" stroke="#000000" stroke-opacity="1" stroke-width="6.4"/>
<circle clip-path="url(#clip812)" cx="3112.31" cy="2194.32" r="36" fill="#00008b" fill-rule="evenodd" fill-opacity="1" stroke="#000000" stroke-opacity="1" stroke-width="6.4"/>
<circle clip-path="url(#clip812)" cx="3344.67" cy="2114.61" r="36" fill="#00008b" fill-rule="evenodd" fill-opacity="1" stroke="#000000" stroke-opacity="1" stroke-width="6.4"/>
<circle clip-path="url(#clip812)" cx="3577.03" cy="2058.3" r="36" fill="#00008b" fill-rule="evenodd" fill-opacity="1" stroke="#000000" stroke-opacity="1" stroke-width="6.4"/>
<circle clip-path="url(#clip812)" cx="3809.39" cy="2017.87" r="36" fill="#00008b" fill-rule="evenodd" fill-opacity="1" stroke="#000000" stroke-opacity="1" stroke-width="6.4"/>
<circle clip-path="url(#clip812)" cx="4041.75" cy="1991.51" r="36" fill="#00008b" fill-rule="evenodd" fill-opacity="1" stroke="#000000" stroke-opacity="1" stroke-width="6.4"/>
<circle clip-path="url(#clip812)" cx="4274.1" cy="1976.93" r="36" fill="#00008b" fill-rule="evenodd" fill-opacity="1" stroke="#000000" stroke-opacity="1" stroke-width="6.4"/>
<circle clip-path="url(#clip812)" cx="4506.46" cy="1969.62" r="36" fill="#00008b" fill-rule="evenodd" fill-opacity="1" stroke="#000000" stroke-opacity="1" stroke-width="6.4"/>
<polyline clip-path="url(#clip812)" style="stroke:#ff00ff; stroke-linecap:round; stroke-linejoin:round; stroke-width:12; stroke-opacity:1; fill:none" points="-2777.97,1957.01 8305.52,1957.01 "/>
</svg>
