<svg width="1617" height="303" viewBox="0 0 1617 303" fill="none" xmlns="http://www.w3.org/2000/svg">
<path d="M681.959 198.881C681.959 213.181 671.559 226.181 644.259 226.181C618.259 226.181 606.559 213.181 606.559 196.281L607.859 194.981H623.459L624.759 196.281C624.759 205.381 629.959 210.581 645.559 210.581C657.259 210.581 663.759 206.681 663.759 198.881C663.759 189.781 658.559 187.181 640.359 184.581C622.159 181.981 607.859 175.481 607.859 157.281C607.859 144.281 618.259 132.581 642.959 132.581C667.659 132.581 678.059 144.281 678.059 159.881L676.759 161.181H661.159L659.859 159.881C659.859 152.081 655.959 148.181 641.659 148.181C629.959 148.181 626.059 152.081 626.059 157.281C626.059 165.081 631.259 167.681 649.459 170.281C667.659 172.881 681.959 180.681 681.959 198.881ZM736.58 210.581C746.98 210.581 753.48 206.681 756.08 197.581L757.38 196.281H772.98L774.28 197.581C771.68 215.781 757.38 226.181 736.58 226.181C707.98 226.181 692.38 206.681 692.38 179.381C692.38 152.081 707.98 132.581 736.58 132.581C757.38 132.581 771.68 142.981 774.28 159.881L772.98 161.181H757.38L756.08 159.881C753.48 152.081 746.98 148.181 736.58 148.181C718.38 148.181 710.58 161.181 710.58 179.381C710.58 197.581 718.38 210.581 736.58 210.581ZM808.075 223.581L806.775 224.881H791.175L789.875 223.581V135.181L791.175 133.881H806.775L808.075 135.181V223.581ZM892.549 223.581L891.249 224.881H830.149L828.849 223.581V135.181L830.149 133.881H891.249L892.549 135.181V148.181L891.249 149.481H848.349L847.049 150.781V168.981L848.349 170.281H888.649L889.949 171.581V184.581L888.649 185.881H848.349L847.049 187.181V207.981L848.349 209.281H891.249L892.549 210.581V223.581ZM910.734 135.181L912.034 133.881H930.234L932.834 135.181L967.934 194.981H969.234V135.181L970.534 133.881H986.134L987.434 135.181V223.581L986.134 224.881H967.934L965.334 223.581L930.234 163.781H928.934V223.581L927.634 224.881H912.034L910.734 223.581V135.181ZM1047.23 210.581C1057.63 210.581 1064.13 206.681 1066.73 197.581L1068.03 196.281H1083.63L1084.93 197.581C1082.33 215.781 1068.03 226.181 1047.23 226.181C1018.63 226.181 1003.03 206.681 1003.03 179.381C1003.03 152.081 1018.63 132.581 1047.23 132.581C1068.03 132.581 1082.33 142.981 1084.93 159.881L1083.63 161.181H1068.03L1066.73 159.881C1064.13 152.081 1057.63 148.181 1047.23 148.181C1029.03 148.181 1021.23 161.181 1021.23 179.381C1021.23 197.581 1029.03 210.581 1047.23 210.581ZM1164.23 223.581L1162.93 224.881H1101.83L1100.53 223.581V135.181L1101.83 133.881H1162.93L1164.23 135.181V148.181L1162.93 149.481H1120.03L1118.73 150.781V168.981L1120.03 170.281H1160.33L1161.63 171.581V184.581L1160.33 185.881H1120.03L1118.73 187.181V207.981L1120.03 209.281H1162.93L1164.23 210.581V223.581ZM1252.61 198.881C1252.61 213.181 1242.21 226.181 1214.91 226.181C1188.91 226.181 1177.21 213.181 1177.21 196.281L1178.51 194.981H1194.11L1195.41 196.281C1195.41 205.381 1200.61 210.581 1216.21 210.581C1227.91 210.581 1234.41 206.681 1234.41 198.881C1234.41 189.781 1229.21 187.181 1211.01 184.581C1192.81 181.981 1178.51 175.481 1178.51 157.281C1178.51 144.281 1188.91 132.581 1213.61 132.581C1238.31 132.581 1248.71 144.281 1248.71 159.881L1247.41 161.181H1231.81L1230.51 159.881C1230.51 152.081 1226.61 148.181 1212.31 148.181C1200.61 148.181 1196.71 152.081 1196.71 157.281C1196.71 165.081 1201.91 167.681 1220.11 170.281C1238.31 172.881 1252.61 180.681 1252.61 198.881Z" fill="black"/>
<path d="M709.259 91.0008L707.959 92.3008H692.359L691.059 91.0008V40.3008H689.759L668.959 91.0008L667.659 92.3008H653.359L652.059 91.0008L631.259 40.3008H629.959V91.0008L628.659 92.3008H613.059L611.759 91.0008V2.60077L613.059 1.30078H632.559L633.859 2.60077L659.859 66.3008H661.159L687.159 2.60077L688.459 1.30078H707.959L709.259 2.60077V91.0008ZM801.58 91.0008L800.28 92.3008H788.58L787.28 91.0008L780.78 74.1008L778.18 72.8008H745.68L743.08 74.1008L736.58 91.0008L735.28 92.3008H723.58L722.28 91.0008V78.0008L752.18 2.60077L753.48 1.30078H770.38L771.68 2.60077L801.58 78.0008V91.0008ZM774.28 55.9008L762.58 24.7008H761.28L749.58 55.9008L750.88 57.2008H772.98L774.28 55.9008ZM874.486 15.6008L873.186 16.9008H847.186L845.886 18.2008V91.0008L844.586 92.3008H828.986L827.686 91.0008V18.2008L826.386 16.9008H800.386L799.086 15.6008V2.60077L800.386 1.30078H873.186L874.486 2.60077V15.6008ZM961.602 91.0008L960.302 92.3008H944.702L943.402 91.0008V54.6008L942.102 53.3008H907.002L905.702 54.6008V91.0008L904.402 92.3008H888.802L887.502 91.0008V2.60077L888.802 1.30078H904.402L905.702 2.60077V36.4008L907.002 37.7008H942.102L943.402 36.4008V2.60077L944.702 1.30078H960.302L961.602 2.60077V91.0008ZM1046.16 91.0008L1044.86 92.3008H983.763L982.463 91.0008V2.60077L983.763 1.30078H1044.86L1046.16 2.60077V15.6008L1044.86 16.9008H1001.96L1000.66 18.2008V36.4008L1001.96 37.7008H1042.26L1043.56 39.0008V52.0008L1042.26 53.3008H1001.96L1000.66 54.6008V75.4008L1001.96 76.7008H1044.86L1046.16 78.0008V91.0008ZM1161.85 91.0008L1160.55 92.3008H1144.95L1143.65 91.0008V40.3008H1142.35L1121.55 91.0008L1120.25 92.3008H1105.95L1104.65 91.0008L1083.85 40.3008H1082.55V91.0008L1081.25 92.3008H1065.65L1064.35 91.0008V2.60077L1065.65 1.30078H1085.15L1086.45 2.60077L1112.45 66.3008H1113.75L1139.75 2.60077L1141.05 1.30078H1160.55L1161.85 2.60077V91.0008ZM1254.17 91.0008L1252.87 92.3008H1241.17L1239.87 91.0008L1233.37 74.1008L1230.77 72.8008H1198.27L1195.67 74.1008L1189.17 91.0008L1187.87 92.3008H1176.17L1174.87 91.0008V78.0008L1204.77 2.60077L1206.07 1.30078H1222.97L1224.27 2.60077L1254.17 78.0008V91.0008ZM1226.87 55.9008L1215.17 24.7008H1213.87L1202.17 55.9008L1203.47 57.2008H1225.57L1226.87 55.9008ZM1327.07 15.6008L1325.77 16.9008H1299.77L1298.47 18.2008V91.0008L1297.17 92.3008H1281.57L1280.27 91.0008V18.2008L1278.97 16.9008H1252.97L1251.67 15.6008V2.60077L1252.97 1.30078H1325.77L1327.07 2.60077V15.6008ZM1358.29 91.0008L1356.99 92.3008H1341.39L1340.09 91.0008V2.60077L1341.39 1.30078H1356.99L1358.29 2.60077V91.0008ZM1418.06 78.0008C1428.46 78.0008 1434.96 74.1008 1437.56 65.0008L1438.86 63.7008H1454.46L1455.76 65.0008C1453.16 83.2008 1438.86 93.6008 1418.06 93.6008C1389.46 93.6008 1373.86 74.1008 1373.86 46.8008C1373.86 19.5008 1389.46 0.000776291 1418.06 0.000776291C1438.86 0.000776291 1453.16 10.4008 1455.76 27.3008L1454.46 28.6008H1438.86L1437.56 27.3008C1434.96 19.5008 1428.46 15.6008 1418.06 15.6008C1399.86 15.6008 1392.06 28.6008 1392.06 46.8008C1392.06 65.0008 1399.86 78.0008 1418.06 78.0008ZM1540.32 91.0008L1539.02 92.3008H1527.32L1526.02 91.0008L1519.52 74.1008L1516.92 72.8008H1484.42L1481.82 74.1008L1475.32 91.0008L1474.02 92.3008H1462.32L1461.02 91.0008V78.0008L1490.92 2.60077L1492.22 1.30078H1509.12L1510.42 2.60077L1540.32 78.0008V91.0008ZM1513.02 55.9008L1501.32 24.7008H1500.02L1488.32 55.9008L1489.62 57.2008H1511.72L1513.02 55.9008ZM1614.47 91.0008L1613.17 92.3008H1554.67L1553.37 91.0008V2.60077L1554.67 1.30078H1570.27L1571.57 2.60077V75.4008L1572.87 76.7008H1613.17L1614.47 78.0008V91.0008Z" fill="black"/>
<path d="M426.985 62.2633C426.974 62.0113 426.964 61.7593 426.953 61.5183C425.956 40.6909 418.199 25.4183 405.194 15.4703C404.887 15.2402 404.58 15.0101 404.274 14.8019C391.97 5.78517 375.164 1.38086 355.07 1.38086H235.288L232.155 4.51427V221.75L235.288 224.883H264.716L267.85 221.75V134.102L270.972 130.968H355.07C373.454 130.968 389.801 126.761 402.269 118.161C402.849 117.766 403.408 117.372 403.967 116.956C415.788 108.169 423.797 95.2079 426.262 77.8974C426.35 77.2839 426.427 76.6594 426.503 76.024C426.58 75.3995 426.646 74.764 426.701 74.1286C426.744 73.6794 426.788 73.2302 426.81 72.781C426.985 70.6336 427.062 68.4315 427.062 66.1746C427.062 64.8489 427.04 63.5451 426.985 62.2633ZM270.972 98.418L267.85 95.2846V37.0645L270.983 33.9311H352.879C380.948 33.9311 391.378 42.674 391.378 66.1746C391.378 89.6751 380.948 98.418 352.879 98.418H270.972Z" fill="black"/>
<path d="M499.989 221.75L496.856 224.883H467.428L464.294 221.75V4.51427L467.439 1.38086H496.866L500 4.51427V221.75H499.989Z" fill="black"/>
<path d="M172.316 224.883L166.367 221.585L110.086 134.036L103.972 130.979H38.8171L35.6836 134.113V221.76L32.5612 224.894H3.13341L0 221.76V4.51427L3.13341 1.38086H120.724C169.259 1.38086 194.907 23.7858 194.907 66.1746C194.907 98.418 179.13 119.421 149.232 127.079V130.179L191.774 197.011V221.563L188.454 224.883H172.316ZM120.724 98.418C148.793 98.418 159.223 89.6751 159.223 66.1746C159.223 42.674 148.793 33.9311 120.724 33.9311H38.828L35.6836 37.0645V95.2846L38.8171 98.418H120.724Z" fill="black"/>
<path d="M496.876 266.197L500 269.321V299.073L496.876 302.197H3.12364L0 299.073V269.321L3.12364 266.197H496.887H496.876Z" fill="black"/>
</svg>
