<svg width="2018" height="1655" xmlns="http://www.w3.org/2000/svg" xmlns:xlink="http://www.w3.org/1999/xlink" xml:space="preserve" overflow="hidden"><g transform="translate(-391 -485)"><rect x="393.5" y="487.5" width="1650" height="1650" stroke="#172C51" stroke-width="4.58333" stroke-miterlimit="8" fill="#FFFFFF"/><path d="M498.5 712.5C498.5 639.599 557.598 580.5 630.5 580.5 703.402 580.5 762.5 639.599 762.5 712.5 762.5 785.402 703.402 844.5 630.5 844.5 557.598 844.5 498.5 785.402 498.5 712.5Z" stroke="#172C51" stroke-width="4.58333" stroke-miterlimit="8" fill-rule="evenodd"/><text fill="#FFFFFF" font-family="STIX Two Text,STIX Two Text_MSFontService,sans-serif" font-weight="700" font-size="110" transform="matrix(1 0 0 1 602.412 744)">1</text><path d="M825.5 1980.5C825.5 1907.6 884.598 1848.5 957.5 1848.5 1030.4 1848.5 1089.5 1907.6 1089.5 1980.5 1089.5 2053.4 1030.4 2112.5 957.5 2112.5 884.598 2112.5 825.5 2053.4 825.5 1980.5Z" stroke="#172C51" stroke-width="4.58333" stroke-miterlimit="8" fill-rule="evenodd"/><text fill="#FFFFFF" font-family="STIX Two Text,STIX Two Text_MSFontService,sans-serif" font-weight="700" font-size="92" transform="matrix(1 0 0 1 906.745 2026)">11</text><path d="M498.5 1320.5C498.5 1247.6 557.598 1188.5 630.5 1188.5 703.402 1188.5 762.5 1247.6 762.5 1320.5 762.5 1393.4 703.402 1452.5 630.5 1452.5 557.598 1452.5 498.5 1393.4 498.5 1320.5Z" stroke="#172C51" stroke-width="4.58333" stroke-miterlimit="8" fill-rule="evenodd"/><text fill="#FFFFFF" font-family="STIX Two Text,STIX Two Text_MSFontService,sans-serif" font-weight="700" font-size="110" transform="matrix(1 0 0 1 602.412 1368)">4</text><path d="M498.5 1936.5C498.5 1863.6 557.598 1804.5 630.5 1804.5 703.402 1804.5 762.5 1863.6 762.5 1936.5 762.5 2009.4 703.402 2068.5 630.5 2068.5 557.598 2068.5 498.5 2009.4 498.5 1936.5Z" stroke="#172C51" stroke-width="4.58333" stroke-miterlimit="8" fill-rule="evenodd"/><text fill="#FFFFFF" font-family="STIX Two Text,STIX Two Text_MSFontService,sans-serif" font-weight="700" font-size="110" transform="matrix(1 0 0 1 602.412 1968)">7</text><path d="M1075.5 712.5C1075.5 639.599 1134.6 580.5 1207.5 580.5 1280.4 580.5 1339.5 639.599 1339.5 712.5 1339.5 785.402 1280.4 844.5 1207.5 844.5 1134.6 844.5 1075.5 785.402 1075.5 712.5Z" stroke="#172C51" stroke-width="4.58333" stroke-miterlimit="8" fill-rule="evenodd"/><text fill="#FFFFFF" font-family="STIX Two Text,STIX Two Text_MSFontService,sans-serif" font-weight="700" font-size="110" transform="matrix(1 0 0 1 1179.91 760)">2</text><path d="M1606.5 712.5C1606.5 639.599 1665.6 580.5 1738.5 580.5 1811.4 580.5 1870.5 639.599 1870.5 712.5 1870.5 785.402 1811.4 844.5 1738.5 844.5 1665.6 844.5 1606.5 785.402 1606.5 712.5Z" stroke="#172C51" stroke-width="4.58333" stroke-miterlimit="8" fill-rule="evenodd"/><text fill="#FFFFFF" font-family="STIX Two Text,STIX Two Text_MSFontService,sans-serif" font-weight="700" font-size="110" transform="matrix(1 0 0 1 1710.66 744)">3</text><path d="M1639.5 1328.5C1639.5 1255.6 1698.6 1196.5 1771.5 1196.5 1844.4 1196.5 1903.5 1255.6 1903.5 1328.5 1903.5 1401.4 1844.4 1460.5 1771.5 1460.5 1698.6 1460.5 1639.5 1401.4 1639.5 1328.5Z" stroke="#172C51" stroke-width="4.58333" stroke-miterlimit="8" fill-rule="evenodd"/><text fill="#FFFFFF" font-family="STIX Two Text,STIX Two Text_MSFontService,sans-serif" font-weight="700" font-size="110" transform="matrix(1 0 0 1 1743.66 1360)">6</text><path d="M1639.5 1928.5C1639.5 1855.6 1698.6 1796.5 1771.5 1796.5 1844.4 1796.5 1903.5 1855.6 1903.5 1928.5 1903.5 2001.4 1844.4 2060.5 1771.5 2060.5 1698.6 2060.5 1639.5 2001.4 1639.5 1928.5Z" stroke="#172C51" stroke-width="4.58333" stroke-miterlimit="8" fill-rule="evenodd"/><text fill="#FFFFFF" font-family="STIX Two Text,STIX Two Text_MSFontService,sans-serif" font-weight="700" font-size="110" transform="matrix(1 0 0 1 1743.66 1960)">9</text><path d="M1078.5 1851.5C1078.5 1778.6 1137.6 1719.5 1210.5 1719.5 1283.4 1719.5 1342.5 1778.6 1342.5 1851.5 1342.5 1924.4 1283.4 1983.5 1210.5 1983.5 1137.6 1983.5 1078.5 1924.4 1078.5 1851.5Z" stroke="#172C51" stroke-width="4.58333" stroke-miterlimit="8" fill-rule="evenodd"/><text fill="#FFFFFF" font-family="STIX Two Text,STIX Two Text_MSFontService,sans-serif" font-weight="700" font-size="110" transform="matrix(1 0 0 1 1182.66 1883)">8</text><path d="M2129.5 1309.5C2129.5 1236.6 2188.6 1177.5 2261.5 1177.5 2334.4 1177.5 2393.5 1236.6 2393.5 1309.5 2393.5 1382.4 2334.4 1441.5 2261.5 1441.5 2188.6 1441.5 2129.5 1382.4 2129.5 1309.5Z" stroke="#172C51" stroke-width="4.58333" stroke-miterlimit="8" fill-rule="evenodd"/><text fill="#FFFFFF" font-family="STIX Two Text,STIX Two Text_MSFontService,sans-serif" font-weight="700" font-size="92" transform="matrix(1 0 0 1 2210.25 1355)">10</text><path d="M2142.5 1966.5C2142.5 1893.6 2201.6 1834.5 2274.5 1834.5 2347.4 1834.5 2406.5 1893.6 2406.5 1966.5 2406.5 2039.4 2347.4 2098.5 2274.5 2098.5 2201.6 2098.5 2142.5 2039.4 2142.5 1966.5Z" stroke="#172C51" stroke-width="4.58333" stroke-miterlimit="8" fill-rule="evenodd"/><text fill="#FFFFFF" font-family="STIX Two Text,STIX Two Text_MSFontService,sans-serif" font-weight="700" font-size="92" transform="matrix(1 0 0 1 2224 2013)">12</text><path d="M1075.5 1315.5C1075.5 1242.6 1134.6 1183.5 1207.5 1183.5 1280.4 1183.5 1339.5 1242.6 1339.5 1315.5 1339.5 1388.4 1280.4 1447.5 1207.5 1447.5 1134.6 1447.5 1075.5 1388.4 1075.5 1315.5Z" stroke="#172C51" stroke-width="4.58333" stroke-miterlimit="8" fill-rule="evenodd"/><text fill="#FFFFFF" font-family="STIX Two Text,STIX Two Text_MSFontService,sans-serif" font-weight="700" font-size="110" transform="matrix(1 0 0 1 1179.91 1363)">5</text></g></svg>