<svg width="1655" height="2045" xmlns="http://www.w3.org/2000/svg" xmlns:xlink="http://www.w3.org/1999/xlink" xml:space="preserve" overflow="hidden"><g transform="translate(-573 -485)"><rect x="575.5" y="487.5" width="1650" height="1650" stroke="#172C51" stroke-width="4.58333" stroke-miterlimit="8" fill="#FFFFFF"/><path d="M679.5 712.5C679.5 639.599 738.599 580.5 811.5 580.5 884.402 580.5 943.5 639.599 943.5 712.5 943.5 785.402 884.402 844.5 811.5 844.5 738.599 844.5 679.5 785.402 679.5 712.5Z" stroke="#172C51" stroke-width="4.58333" stroke-miterlimit="8" fill-rule="evenodd"/><text fill="#FFFFFF" font-family="STIX Two Text,STIX Two Text_MSFontService,sans-serif" font-weight="700" font-size="110" transform="matrix(1 0 0 1 783.912 744)">1</text><path d="M1202.5 2395.5C1202.5 2322.6 1261.6 2263.5 1334.5 2263.5 1407.4 2263.5 1466.5 2322.6 1466.5 2395.5 1466.5 2468.4 1407.4 2527.5 1334.5 2527.5 1261.6 2527.5 1202.5 2468.4 1202.5 2395.5Z" stroke="#172C51" stroke-width="4.58333" stroke-miterlimit="8" fill-rule="evenodd"/><text fill="#FFFFFF" font-family="STIX Two Text,STIX Two Text_MSFontService,sans-serif" font-weight="700" font-size="92" transform="matrix(1 0 0 1 1283.5 2442)">11</text><path d="M679.5 1320.5C679.5 1247.6 738.599 1188.5 811.5 1188.5 884.402 1188.5 943.5 1247.6 943.5 1320.5 943.5 1393.4 884.402 1452.5 811.5 1452.5 738.599 1452.5 679.5 1393.4 679.5 1320.5Z" stroke="#172C51" stroke-width="4.58333" stroke-miterlimit="8" fill-rule="evenodd"/><text fill="#FFFFFF" font-family="STIX Two Text,STIX Two Text_MSFontService,sans-serif" font-weight="700" font-size="110" transform="matrix(1 0 0 1 783.912 1368)">4</text><path d="M679.5 1936.5C679.5 1863.6 738.599 1804.5 811.5 1804.5 884.402 1804.5 943.5 1863.6 943.5 1936.5 943.5 2009.4 884.402 2068.5 811.5 2068.5 738.599 2068.5 679.5 2009.4 679.5 1936.5Z" stroke="#172C51" stroke-width="4.58333" stroke-miterlimit="8" fill-rule="evenodd"/><text fill="#FFFFFF" font-family="STIX Two Text,STIX Two Text_MSFontService,sans-serif" font-weight="700" font-size="110" transform="matrix(1 0 0 1 783.912 1968)">7</text><path d="M1257.5 712.5C1257.5 639.599 1316.6 580.5 1389.5 580.5 1462.4 580.5 1521.5 639.599 1521.5 712.5 1521.5 785.402 1462.4 844.5 1389.5 844.5 1316.6 844.5 1257.5 785.402 1257.5 712.5Z" stroke="#172C51" stroke-width="4.58333" stroke-miterlimit="8" fill-rule="evenodd"/><text fill="#FFFFFF" font-family="STIX Two Text,STIX Two Text_MSFontService,sans-serif" font-weight="700" font-size="110" transform="matrix(1 0 0 1 1361.41 760)">2</text><path d="M1788.5 712.5C1788.5 639.599 1847.6 580.5 1920.5 580.5 1993.4 580.5 2052.5 639.599 2052.5 712.5 2052.5 785.402 1993.4 844.5 1920.5 844.5 1847.6 844.5 1788.5 785.402 1788.5 712.5Z" stroke="#172C51" stroke-width="4.58333" stroke-miterlimit="8" fill-rule="evenodd"/><text fill="#FFFFFF" font-family="STIX Two Text,STIX Two Text_MSFontService,sans-serif" font-weight="700" font-size="110" transform="matrix(1 0 0 1 1892.16 744)">3</text><path d="M1790.5 1361.5C1790.5 1288.6 1849.6 1229.5 1922.5 1229.5 1995.4 1229.5 2054.5 1288.6 2054.5 1361.5 2054.5 1434.4 1995.4 1493.5 1922.5 1493.5 1849.6 1493.5 1790.5 1434.4 1790.5 1361.5Z" stroke="#172C51" stroke-width="4.58333" stroke-miterlimit="8" fill-rule="evenodd"/><text fill="#FFFFFF" font-family="STIX Two Text,STIX Two Text_MSFontService,sans-serif" font-weight="700" font-size="110" transform="matrix(1 0 0 1 1894.91 1393)">6</text><path d="M1603.5 1986.5C1603.5 1913.6 1662.6 1854.5 1735.5 1854.5 1808.4 1854.5 1867.5 1913.6 1867.5 1986.5 1867.5 2059.4 1808.4 2118.5 1735.5 2118.5 1662.6 2118.5 1603.5 2059.4 1603.5 1986.5Z" stroke="#172C51" stroke-width="4.58333" stroke-miterlimit="8" fill-rule="evenodd"/><text fill="#FFFFFF" font-family="STIX Two Text,STIX Two Text_MSFontService,sans-serif" font-weight="700" font-size="110" transform="matrix(1 0 0 1 1707.91 2017)">9</text><path d="M1249.5 1944.5C1249.5 1871.6 1308.6 1812.5 1381.5 1812.5 1454.4 1812.5 1513.5 1871.6 1513.5 1944.5 1513.5 2017.4 1454.4 2076.5 1381.5 2076.5 1308.6 2076.5 1249.5 2017.4 1249.5 1944.5Z" stroke="#172C51" stroke-width="4.58333" stroke-miterlimit="8" fill-rule="evenodd"/><text fill="#FFFFFF" font-family="STIX Two Text,STIX Two Text_MSFontService,sans-serif" font-weight="700" font-size="110" transform="matrix(1 0 0 1 1353.16 1976)">8</text><path d="M1944.5 1114.5C1944.5 1041.6 2003.6 982.5 2076.5 982.5 2149.4 982.5 2208.5 1041.6 2208.5 1114.5 2208.5 1187.4 2149.4 1246.5 2076.5 1246.5 2003.6 1246.5 1944.5 1187.4 1944.5 1114.5Z" stroke="#172C51" stroke-width="4.58333" stroke-miterlimit="8" fill-rule="evenodd"/><text fill="#FFFFFF" font-family="STIX Two Text,STIX Two Text_MSFontService,sans-serif" font-weight="700" font-size="92" transform="matrix(1 0 0 1 2026 1160)">10</text><path d="M1865.5 1854.5C1865.5 1781.6 1924.6 1722.5 1997.5 1722.5 2070.4 1722.5 2129.5 1781.6 2129.5 1854.5 2129.5 1927.4 2070.4 1986.5 1997.5 1986.5 1924.6 1986.5 1865.5 1927.4 1865.5 1854.5Z" stroke="#172C51" stroke-width="4.58333" stroke-miterlimit="8" fill-rule="evenodd"/><text fill="#FFFFFF" font-family="STIX Two Text,STIX Two Text_MSFontService,sans-serif" font-weight="700" font-size="92" transform="matrix(1 0 0 1 1946.25 1900)">12</text><path d="M1257.5 1315.5C1257.5 1242.6 1316.6 1183.5 1389.5 1183.5 1462.4 1183.5 1521.5 1242.6 1521.5 1315.5 1521.5 1388.4 1462.4 1447.5 1389.5 1447.5 1316.6 1447.5 1257.5 1388.4 1257.5 1315.5Z" stroke="#172C51" stroke-width="4.58333" stroke-miterlimit="8" fill-rule="evenodd"/><text fill="#FFFFFF" font-family="STIX Two Text,STIX Two Text_MSFontService,sans-serif" font-weight="700" font-size="110" transform="matrix(1 0 0 1 1361.41 1363)">5</text></g></svg>