<svg width="2004" height="1655" xmlns="http://www.w3.org/2000/svg" xmlns:xlink="http://www.w3.org/1999/xlink" xml:space="preserve" overflow="hidden"><g transform="translate(-397 -485)"><rect x="399.5" y="487.5" width="1650" height="1650" stroke="#172C51" stroke-width="4.58333" stroke-miterlimit="8" fill="#FFFFFF"/><path d="M503.5 712.5C503.5 639.599 562.599 580.5 635.5 580.5 708.402 580.5 767.5 639.599 767.5 712.5 767.5 785.402 708.402 844.5 635.5 844.5 562.599 844.5 503.5 785.402 503.5 712.5Z" stroke="#172C51" stroke-width="4.58333" stroke-miterlimit="8" fill-rule="evenodd"/><text fill="#FFFFFF" font-family="STIX Two Text,STIX Two Text_MSFontService,sans-serif" font-weight="700" font-size="110" transform="matrix(1 0 0 1 607.912 744)">1</text><path d="M831.5 1980.5C831.5 1907.6 890.598 1848.5 963.5 1848.5 1036.4 1848.5 1095.5 1907.6 1095.5 1980.5 1095.5 2053.4 1036.4 2112.5 963.5 2112.5 890.598 2112.5 831.5 2053.4 831.5 1980.5Z" stroke="#172C51" stroke-width="4.58333" stroke-miterlimit="8" fill-rule="evenodd"/><text fill="#FFFFFF" font-family="STIX Two Text,STIX Two Text_MSFontService,sans-serif" font-weight="700" font-size="92" transform="matrix(1 0 0 1 912.245 2026)">11</text><path d="M503.5 1320.5C503.5 1247.6 562.599 1188.5 635.5 1188.5 708.402 1188.5 767.5 1247.6 767.5 1320.5 767.5 1393.4 708.402 1452.5 635.5 1452.5 562.599 1452.5 503.5 1393.4 503.5 1320.5Z" stroke="#172C51" stroke-width="4.58333" stroke-miterlimit="8" fill-rule="evenodd"/><text fill="#FFFFFF" font-family="STIX Two Text,STIX Two Text_MSFontService,sans-serif" font-weight="700" font-size="110" transform="matrix(1 0 0 1 607.912 1368)">4</text><path d="M503.5 1936.5C503.5 1863.6 562.599 1804.5 635.5 1804.5 708.402 1804.5 767.5 1863.6 767.5 1936.5 767.5 2009.4 708.402 2068.5 635.5 2068.5 562.599 2068.5 503.5 2009.4 503.5 1936.5Z" stroke="#172C51" stroke-width="4.58333" stroke-miterlimit="8" fill-rule="evenodd"/><text fill="#FFFFFF" font-family="STIX Two Text,STIX Two Text_MSFontService,sans-serif" font-weight="700" font-size="110" transform="matrix(1 0 0 1 607.912 1968)">7</text><path d="M1081.5 712.5C1081.5 639.599 1140.6 580.5 1213.5 580.5 1286.4 580.5 1345.5 639.599 1345.5 712.5 1345.5 785.402 1286.4 844.5 1213.5 844.5 1140.6 844.5 1081.5 785.402 1081.5 712.5Z" stroke="#172C51" stroke-width="4.58333" stroke-miterlimit="8" fill-rule="evenodd"/><text fill="#FFFFFF" font-family="STIX Two Text,STIX Two Text_MSFontService,sans-serif" font-weight="700" font-size="110" transform="matrix(1 0 0 1 1185.41 760)">2</text><path d="M1612.5 712.5C1612.5 639.599 1671.6 580.5 1744.5 580.5 1817.4 580.5 1876.5 639.599 1876.5 712.5 1876.5 785.402 1817.4 844.5 1744.5 844.5 1671.6 844.5 1612.5 785.402 1612.5 712.5Z" stroke="#172C51" stroke-width="4.58333" stroke-miterlimit="8" fill-rule="evenodd"/><text fill="#FFFFFF" font-family="STIX Two Text,STIX Two Text_MSFontService,sans-serif" font-weight="700" font-size="110" transform="matrix(1 0 0 1 1716.16 744)">3</text><path d="M1645.5 1328.5C1645.5 1255.6 1704.6 1196.5 1777.5 1196.5 1850.4 1196.5 1909.5 1255.6 1909.5 1328.5 1909.5 1401.4 1850.4 1460.5 1777.5 1460.5 1704.6 1460.5 1645.5 1401.4 1645.5 1328.5Z" stroke="#172C51" stroke-width="4.58333" stroke-miterlimit="8" fill-rule="evenodd"/><text fill="#FFFFFF" font-family="STIX Two Text,STIX Two Text_MSFontService,sans-serif" font-weight="700" font-size="110" transform="matrix(1 0 0 1 1749.16 1360)">6</text><path d="M1427.5 1986.5C1427.5 1913.6 1486.6 1854.5 1559.5 1854.5 1632.4 1854.5 1691.5 1913.6 1691.5 1986.5 1691.5 2059.4 1632.4 2118.5 1559.5 2118.5 1486.6 2118.5 1427.5 2059.4 1427.5 1986.5Z" stroke="#172C51" stroke-width="4.58333" stroke-miterlimit="8" fill-rule="evenodd"/><text fill="#FFFFFF" font-family="STIX Two Text,STIX Two Text_MSFontService,sans-serif" font-weight="700" font-size="110" transform="matrix(1 0 0 1 1531.91 2017)">9</text><path d="M1084.5 1851.5C1084.5 1778.6 1143.6 1719.5 1216.5 1719.5 1289.4 1719.5 1348.5 1778.6 1348.5 1851.5 1348.5 1924.4 1289.4 1983.5 1216.5 1983.5 1143.6 1983.5 1084.5 1924.4 1084.5 1851.5Z" stroke="#172C51" stroke-width="4.58333" stroke-miterlimit="8" fill-rule="evenodd"/><text fill="#FFFFFF" font-family="STIX Two Text,STIX Two Text_MSFontService,sans-serif" font-weight="700" font-size="110" transform="matrix(1 0 0 1 1188.16 1883)">8</text><path d="M2134.5 1309.5C2134.5 1236.6 2193.6 1177.5 2266.5 1177.5 2339.4 1177.5 2398.5 1236.6 2398.5 1309.5 2398.5 1382.4 2339.4 1441.5 2266.5 1441.5 2193.6 1441.5 2134.5 1382.4 2134.5 1309.5Z" stroke="#172C51" stroke-width="4.58333" stroke-miterlimit="8" fill-rule="evenodd"/><text fill="#FFFFFF" font-family="STIX Two Text,STIX Two Text_MSFontService,sans-serif" font-weight="700" font-size="92" transform="matrix(1 0 0 1 2215.75 1355)">10</text><path d="M1689.5 1854.5C1689.5 1781.6 1748.6 1722.5 1821.5 1722.5 1894.4 1722.5 1953.5 1781.6 1953.5 1854.5 1953.5 1927.4 1894.4 1986.5 1821.5 1986.5 1748.6 1986.5 1689.5 1927.4 1689.5 1854.5Z" stroke="#172C51" stroke-width="4.58333" stroke-miterlimit="8" fill-rule="evenodd"/><text fill="#FFFFFF" font-family="STIX Two Text,STIX Two Text_MSFontService,sans-serif" font-weight="700" font-size="92" transform="matrix(1 0 0 1 1770.25 1900)">12</text><path d="M1081.5 1315.5C1081.5 1242.6 1140.6 1183.5 1213.5 1183.5 1286.4 1183.5 1345.5 1242.6 1345.5 1315.5 1345.5 1388.4 1286.4 1447.5 1213.5 1447.5 1140.6 1447.5 1081.5 1388.4 1081.5 1315.5Z" stroke="#172C51" stroke-width="4.58333" stroke-miterlimit="8" fill-rule="evenodd"/><text fill="#FFFFFF" font-family="STIX Two Text,STIX Two Text_MSFontService,sans-serif" font-weight="700" font-size="110" transform="matrix(1 0 0 1 1185.41 1363)">5</text></g></svg>