<svg width="2004" height="2054" xmlns="http://www.w3.org/2000/svg" xmlns:xlink="http://www.w3.org/1999/xlink" xml:space="preserve" overflow="hidden"><g transform="translate(-397 -485)"><rect x="399.5" y="487.5" width="1650" height="1650" stroke="#172C51" stroke-width="4.58333" stroke-miterlimit="8" fill="#FFFFFF"/><path d="M503.5 712.5C503.5 639.599 562.599 580.5 635.5 580.5 708.402 580.5 767.5 639.599 767.5 712.5 767.5 785.402 708.402 844.5 635.5 844.5 562.599 844.5 503.5 785.402 503.5 712.5Z" stroke="#172C51" stroke-width="4.58333" stroke-miterlimit="8" fill-rule="evenodd"/><text fill="#FFFFFF" font-family="STIX Two Text,STIX Two Text_MSFontService,sans-serif" font-weight="700" font-size="110" transform="matrix(1 0 0 1 607.912 744)">1</text><path d="M1078.5 2404.5C1078.5 2331.6 1137.6 2272.5 1210.5 2272.5 1283.4 2272.5 1342.5 2331.6 1342.5 2404.5 1342.5 2477.4 1283.4 2536.5 1210.5 2536.5 1137.6 2536.5 1078.5 2477.4 1078.5 2404.5Z" stroke="#172C51" stroke-width="4.58333" stroke-miterlimit="8" fill-rule="evenodd"/><text fill="#FFFFFF" font-family="STIX Two Text,STIX Two Text_MSFontService,sans-serif" font-weight="700" font-size="92" transform="matrix(1 0 0 1 1159.75 2450)">11</text><path d="M503.5 1320.5C503.5 1247.6 562.599 1188.5 635.5 1188.5 708.402 1188.5 767.5 1247.6 767.5 1320.5 767.5 1393.4 708.402 1452.5 635.5 1452.5 562.599 1452.5 503.5 1393.4 503.5 1320.5Z" stroke="#172C51" stroke-width="4.58333" stroke-miterlimit="8" fill-rule="evenodd"/><text fill="#FFFFFF" font-family="STIX Two Text,STIX Two Text_MSFontService,sans-serif" font-weight="700" font-size="110" transform="matrix(1 0 0 1 607.912 1368)">4</text><path d="M503.5 1936.5C503.5 1863.6 562.599 1804.5 635.5 1804.5 708.402 1804.5 767.5 1863.6 767.5 1936.5 767.5 2009.4 708.402 2068.5 635.5 2068.5 562.599 2068.5 503.5 2009.4 503.5 1936.5Z" stroke="#172C51" stroke-width="4.58333" stroke-miterlimit="8" fill-rule="evenodd"/><text fill="#FFFFFF" font-family="STIX Two Text,STIX Two Text_MSFontService,sans-serif" font-weight="700" font-size="110" transform="matrix(1 0 0 1 607.912 1968)">7</text><path d="M1081.5 712.5C1081.5 639.599 1140.6 580.5 1213.5 580.5 1286.4 580.5 1345.5 639.599 1345.5 712.5 1345.5 785.402 1286.4 844.5 1213.5 844.5 1140.6 844.5 1081.5 785.402 1081.5 712.5Z" stroke="#172C51" stroke-width="4.58333" stroke-miterlimit="8" fill-rule="evenodd"/><text fill="#FFFFFF" font-family="STIX Two Text,STIX Two Text_MSFontService,sans-serif" font-weight="700" font-size="110" transform="matrix(1 0 0 1 1185.41 760)">2</text><path d="M1612.5 712.5C1612.5 639.599 1671.6 580.5 1744.5 580.5 1817.4 580.5 1876.5 639.599 1876.5 712.5 1876.5 785.402 1817.4 844.5 1744.5 844.5 1671.6 844.5 1612.5 785.402 1612.5 712.5Z" stroke="#172C51" stroke-width="4.58333" stroke-miterlimit="8" fill-rule="evenodd"/><text fill="#FFFFFF" font-family="STIX Two Text,STIX Two Text_MSFontService,sans-serif" font-weight="700" font-size="110" transform="matrix(1 0 0 1 1716.16 744)">3</text><path d="M1614.5 1361.5C1614.5 1288.6 1673.6 1229.5 1746.5 1229.5 1819.4 1229.5 1878.5 1288.6 1878.5 1361.5 1878.5 1434.4 1819.4 1493.5 1746.5 1493.5 1673.6 1493.5 1614.5 1434.4 1614.5 1361.5Z" stroke="#172C51" stroke-width="4.58333" stroke-miterlimit="8" fill-rule="evenodd"/><text fill="#FFFFFF" font-family="STIX Two Text,STIX Two Text_MSFontService,sans-serif" font-weight="700" font-size="110" transform="matrix(1 0 0 1 1718.91 1393)">6</text><path d="M1634.5 1933.5C1634.5 1860.6 1693.6 1801.5 1766.5 1801.5 1839.4 1801.5 1898.5 1860.6 1898.5 1933.5 1898.5 2006.4 1839.4 2065.5 1766.5 2065.5 1693.6 2065.5 1634.5 2006.4 1634.5 1933.5Z" stroke="#172C51" stroke-width="4.58333" stroke-miterlimit="8" fill-rule="evenodd"/><text fill="#FFFFFF" font-family="STIX Two Text,STIX Two Text_MSFontService,sans-serif" font-weight="700" font-size="110" transform="matrix(1 0 0 1 1738.16 1965)">9</text><path d="M1089.5 1939.5C1089.5 1866.6 1148.6 1807.5 1221.5 1807.5 1294.4 1807.5 1353.5 1866.6 1353.5 1939.5 1353.5 2012.4 1294.4 2071.5 1221.5 2071.5 1148.6 2071.5 1089.5 2012.4 1089.5 1939.5Z" stroke="#172C51" stroke-width="4.58333" stroke-miterlimit="8" fill-rule="evenodd"/><text fill="#FFFFFF" font-family="STIX Two Text,STIX Two Text_MSFontService,sans-serif" font-weight="700" font-size="110" transform="matrix(1 0 0 1 1193.66 1971)">8</text><path d="M1768.5 1114.5C1768.5 1041.6 1827.6 982.5 1900.5 982.5 1973.4 982.5 2032.5 1041.6 2032.5 1114.5 2032.5 1187.4 1973.4 1246.5 1900.5 1246.5 1827.6 1246.5 1768.5 1187.4 1768.5 1114.5Z" stroke="#172C51" stroke-width="4.58333" stroke-miterlimit="8" fill-rule="evenodd"/><text fill="#FFFFFF" font-family="STIX Two Text,STIX Two Text_MSFontService,sans-serif" font-weight="700" font-size="92" transform="matrix(1 0 0 1 1850 1160)">10</text><path d="M2134.5 1958.5C2134.5 1885.6 2193.6 1826.5 2266.5 1826.5 2339.4 1826.5 2398.5 1885.6 2398.5 1958.5 2398.5 2031.4 2339.4 2090.5 2266.5 2090.5 2193.6 2090.5 2134.5 2031.4 2134.5 1958.5Z" stroke="#172C51" stroke-width="4.58333" stroke-miterlimit="8" fill-rule="evenodd"/><text fill="#FFFFFF" font-family="STIX Two Text,STIX Two Text_MSFontService,sans-serif" font-weight="700" font-size="92" transform="matrix(1 0 0 1 2215.75 2004)">12</text><path d="M1081.5 1315.5C1081.5 1242.6 1140.6 1183.5 1213.5 1183.5 1286.4 1183.5 1345.5 1242.6 1345.5 1315.5 1345.5 1388.4 1286.4 1447.5 1213.5 1447.5 1140.6 1447.5 1081.5 1388.4 1081.5 1315.5Z" stroke="#172C51" stroke-width="4.58333" stroke-miterlimit="8" fill-rule="evenodd"/><text fill="#FFFFFF" font-family="STIX Two Text,STIX Two Text_MSFontService,sans-serif" font-weight="700" font-size="110" transform="matrix(1 0 0 1 1185.41 1363)">5</text></g></svg>