<svg width="2010" height="1655" xmlns="http://www.w3.org/2000/svg" xmlns:xlink="http://www.w3.org/1999/xlink" xml:space="preserve" overflow="hidden"><g transform="translate(-394 -485)"><rect x="396.5" y="487.5" width="1650" height="1650" stroke="#172C51" stroke-width="4.58333" stroke-miterlimit="8" fill="#FFFFFF"/><path d="M501.5 712.5C501.5 639.599 560.598 580.5 633.5 580.5 706.402 580.5 765.5 639.599 765.5 712.5 765.5 785.402 706.402 844.5 633.5 844.5 560.598 844.5 501.5 785.402 501.5 712.5Z" stroke="#172C51" stroke-width="4.58333" stroke-miterlimit="8" fill-rule="evenodd"/><text fill="#FFFFFF" font-family="STIX Two Text,STIX Two Text_MSFontService,sans-serif" font-weight="700" font-size="110" transform="matrix(1 0 0 1 605.162 744)">1</text><path d="M828.5 1980.5C828.5 1907.6 887.598 1848.5 960.5 1848.5 1033.4 1848.5 1092.5 1907.6 1092.5 1980.5 1092.5 2053.4 1033.4 2112.5 960.5 2112.5 887.598 2112.5 828.5 2053.4 828.5 1980.5Z" stroke="#172C51" stroke-width="4.58333" stroke-miterlimit="8" fill-rule="evenodd"/><text fill="#FFFFFF" font-family="STIX Two Text,STIX Two Text_MSFontService,sans-serif" font-weight="700" font-size="92" transform="matrix(1 0 0 1 909.495 2026)">11</text><path d="M501.5 1320.5C501.5 1247.6 560.598 1188.5 633.5 1188.5 706.402 1188.5 765.5 1247.6 765.5 1320.5 765.5 1393.4 706.402 1452.5 633.5 1452.5 560.598 1452.5 501.5 1393.4 501.5 1320.5Z" stroke="#172C51" stroke-width="4.58333" stroke-miterlimit="8" fill-rule="evenodd"/><text fill="#FFFFFF" font-family="STIX Two Text,STIX Two Text_MSFontService,sans-serif" font-weight="700" font-size="110" transform="matrix(1 0 0 1 605.162 1368)">4</text><path d="M501.5 1936.5C501.5 1863.6 560.598 1804.5 633.5 1804.5 706.402 1804.5 765.5 1863.6 765.5 1936.5 765.5 2009.4 706.402 2068.5 633.5 2068.5 560.598 2068.5 501.5 2009.4 501.5 1936.5Z" stroke="#172C51" stroke-width="4.58333" stroke-miterlimit="8" fill-rule="evenodd"/><text fill="#FFFFFF" font-family="STIX Two Text,STIX Two Text_MSFontService,sans-serif" font-weight="700" font-size="110" transform="matrix(1 0 0 1 605.162 1968)">7</text><path d="M1078.5 712.5C1078.5 639.599 1137.6 580.5 1210.5 580.5 1283.4 580.5 1342.5 639.599 1342.5 712.5 1342.5 785.402 1283.4 844.5 1210.5 844.5 1137.6 844.5 1078.5 785.402 1078.5 712.5Z" stroke="#172C51" stroke-width="4.58333" stroke-miterlimit="8" fill-rule="evenodd"/><text fill="#FFFFFF" font-family="STIX Two Text,STIX Two Text_MSFontService,sans-serif" font-weight="700" font-size="110" transform="matrix(1 0 0 1 1182.66 760)">2</text><path d="M1609.5 712.5C1609.5 639.599 1668.6 580.5 1741.5 580.5 1814.4 580.5 1873.5 639.599 1873.5 712.5 1873.5 785.402 1814.4 844.5 1741.5 844.5 1668.6 844.5 1609.5 785.402 1609.5 712.5Z" stroke="#172C51" stroke-width="4.58333" stroke-miterlimit="8" fill-rule="evenodd"/><text fill="#FFFFFF" font-family="STIX Two Text,STIX Two Text_MSFontService,sans-serif" font-weight="700" font-size="110" transform="matrix(1 0 0 1 1713.41 744)">3</text><path d="M1612.5 1361.5C1612.5 1288.6 1671.6 1229.5 1744.5 1229.5 1817.4 1229.5 1876.5 1288.6 1876.5 1361.5 1876.5 1434.4 1817.4 1493.5 1744.5 1493.5 1671.6 1493.5 1612.5 1434.4 1612.5 1361.5Z" stroke="#172C51" stroke-width="4.58333" stroke-miterlimit="8" fill-rule="evenodd"/><text fill="#FFFFFF" font-family="STIX Two Text,STIX Two Text_MSFontService,sans-serif" font-weight="700" font-size="110" transform="matrix(1 0 0 1 1716.16 1393)">6</text><path d="M1603.5 1939.5C1603.5 1866.6 1662.6 1807.5 1735.5 1807.5 1808.4 1807.5 1867.5 1866.6 1867.5 1939.5 1867.5 2012.4 1808.4 2071.5 1735.5 2071.5 1662.6 2071.5 1603.5 2012.4 1603.5 1939.5Z" stroke="#172C51" stroke-width="4.58333" stroke-miterlimit="8" fill-rule="evenodd"/><text fill="#FFFFFF" font-family="STIX Two Text,STIX Two Text_MSFontService,sans-serif" font-weight="700" font-size="110" transform="matrix(1 0 0 1 1707.91 1971)">9</text><path d="M1081.5 1851.5C1081.5 1778.6 1140.6 1719.5 1213.5 1719.5 1286.4 1719.5 1345.5 1778.6 1345.5 1851.5 1345.5 1924.4 1286.4 1983.5 1213.5 1983.5 1140.6 1983.5 1081.5 1924.4 1081.5 1851.5Z" stroke="#172C51" stroke-width="4.58333" stroke-miterlimit="8" fill-rule="evenodd"/><text fill="#FFFFFF" font-family="STIX Two Text,STIX Two Text_MSFontService,sans-serif" font-weight="700" font-size="110" transform="matrix(1 0 0 1 1185.41 1883)">8</text><path d="M1766.5 1114.5C1766.5 1041.6 1825.6 982.5 1898.5 982.5 1971.4 982.5 2030.5 1041.6 2030.5 1114.5 2030.5 1187.4 1971.4 1246.5 1898.5 1246.5 1825.6 1246.5 1766.5 1187.4 1766.5 1114.5Z" stroke="#172C51" stroke-width="4.58333" stroke-miterlimit="8" fill-rule="evenodd"/><text fill="#FFFFFF" font-family="STIX Two Text,STIX Two Text_MSFontService,sans-serif" font-weight="700" font-size="92" transform="matrix(1 0 0 1 1847.25 1160)">10</text><path d="M2137.5 1898.5C2137.5 1825.6 2196.6 1766.5 2269.5 1766.5 2342.4 1766.5 2401.5 1825.6 2401.5 1898.5 2401.5 1971.4 2342.4 2030.5 2269.5 2030.5 2196.6 2030.5 2137.5 1971.4 2137.5 1898.5Z" stroke="#172C51" stroke-width="4.58333" stroke-miterlimit="8" fill-rule="evenodd"/><text fill="#FFFFFF" font-family="STIX Two Text,STIX Two Text_MSFontService,sans-serif" font-weight="700" font-size="92" transform="matrix(1 0 0 1 2218.5 1944)">12</text><path d="M1078.5 1315.5C1078.5 1242.6 1137.6 1183.5 1210.5 1183.5 1283.4 1183.5 1342.5 1242.6 1342.5 1315.5 1342.5 1388.4 1283.4 1447.5 1210.5 1447.5 1137.6 1447.5 1078.5 1388.4 1078.5 1315.5Z" stroke="#172C51" stroke-width="4.58333" stroke-miterlimit="8" fill-rule="evenodd"/><text fill="#FFFFFF" font-family="STIX Two Text,STIX Two Text_MSFontService,sans-serif" font-weight="700" font-size="110" transform="matrix(1 0 0 1 1182.66 1363)">5</text></g></svg>