<svg width="1655" height="1655" xmlns="http://www.w3.org/2000/svg" xmlns:xlink="http://www.w3.org/1999/xlink" xml:space="preserve" overflow="hidden"><g transform="translate(-521 -510)"><rect x="523.5" y="512.5" width="1650" height="1650" stroke="#172C51" stroke-width="4.58333" stroke-miterlimit="8" fill="#FFFFFF"/><path d="M627.5 737.5C627.5 664.598 686.598 605.5 759.5 605.5 832.401 605.5 891.5 664.598 891.5 737.5 891.5 810.401 832.401 869.5 759.5 869.5 686.598 869.5 627.5 810.401 627.5 737.5Z" stroke="#172C51" stroke-width="4.58333" stroke-miterlimit="8" fill-rule="evenodd"/><text fill="#FFFFFF" font-family="STIX Two Text,STIX Two Text_MSFontService,sans-serif" font-weight="700" font-size="110" transform="matrix(1 0 0 1 731.662 769)">1</text><path d="M954.5 2005.5C954.5 1932.6 1013.6 1873.5 1086.5 1873.5 1159.4 1873.5 1218.5 1932.6 1218.5 2005.5 1218.5 2078.4 1159.4 2137.5 1086.5 2137.5 1013.6 2137.5 954.5 2078.4 954.5 2005.5Z" stroke="#172C51" stroke-width="4.58333" stroke-miterlimit="8" fill-rule="evenodd"/><text fill="#FFFFFF" font-family="STIX Two Text,STIX Two Text_MSFontService,sans-serif" font-weight="700" font-size="92" transform="matrix(1 0 0 1 1036 2051)">11</text><path d="M627.5 1345.5C627.5 1272.6 686.598 1213.5 759.5 1213.5 832.401 1213.5 891.5 1272.6 891.5 1345.5 891.5 1418.4 832.401 1477.5 759.5 1477.5 686.598 1477.5 627.5 1418.4 627.5 1345.5Z" stroke="#172C51" stroke-width="4.58333" stroke-miterlimit="8" fill-rule="evenodd"/><text fill="#FFFFFF" font-family="STIX Two Text,STIX Two Text_MSFontService,sans-serif" font-weight="700" font-size="110" transform="matrix(1 0 0 1 731.662 1393)">4</text><path d="M627.5 1961.5C627.5 1888.6 686.598 1829.5 759.5 1829.5 832.401 1829.5 891.5 1888.6 891.5 1961.5 891.5 2034.4 832.401 2093.5 759.5 2093.5 686.598 2093.5 627.5 2034.4 627.5 1961.5Z" stroke="#172C51" stroke-width="4.58333" stroke-miterlimit="8" fill-rule="evenodd"/><text fill="#FFFFFF" font-family="STIX Two Text,STIX Two Text_MSFontService,sans-serif" font-weight="700" font-size="110" transform="matrix(1 0 0 1 731.662 1993)">7</text><path d="M1205.5 737.5C1205.5 664.598 1264.6 605.5 1337.5 605.5 1410.4 605.5 1469.5 664.598 1469.5 737.5 1469.5 810.401 1410.4 869.5 1337.5 869.5 1264.6 869.5 1205.5 810.401 1205.5 737.5Z" stroke="#172C51" stroke-width="4.58333" stroke-miterlimit="8" fill-rule="evenodd"/><text fill="#FFFFFF" font-family="STIX Two Text,STIX Two Text_MSFontService,sans-serif" font-weight="700" font-size="110" transform="matrix(1 0 0 1 1309.16 785)">2</text><path d="M1735.5 737.5C1735.5 664.598 1794.6 605.5 1867.5 605.5 1940.4 605.5 1999.5 664.598 1999.5 737.5 1999.5 810.401 1940.4 869.5 1867.5 869.5 1794.6 869.5 1735.5 810.401 1735.5 737.5Z" stroke="#172C51" stroke-width="4.58333" stroke-miterlimit="8" fill-rule="evenodd"/><text fill="#FFFFFF" font-family="STIX Two Text,STIX Two Text_MSFontService,sans-serif" font-weight="700" font-size="110" transform="matrix(1 0 0 1 1839.91 769)">3</text><path d="M1738.5 1386.5C1738.5 1313.6 1797.6 1254.5 1870.5 1254.5 1943.4 1254.5 2002.5 1313.6 2002.5 1386.5 2002.5 1459.4 1943.4 1518.5 1870.5 1518.5 1797.6 1518.5 1738.5 1459.4 1738.5 1386.5Z" stroke="#172C51" stroke-width="4.58333" stroke-miterlimit="8" fill-rule="evenodd"/><text fill="#FFFFFF" font-family="STIX Two Text,STIX Two Text_MSFontService,sans-serif" font-weight="700" font-size="110" transform="matrix(1 0 0 1 1842.66 1418)">6</text><path d="M1551.5 2010.5C1551.5 1937.6 1610.6 1878.5 1683.5 1878.5 1756.4 1878.5 1815.5 1937.6 1815.5 2010.5 1815.5 2083.4 1756.4 2142.5 1683.5 2142.5 1610.6 2142.5 1551.5 2083.4 1551.5 2010.5Z" stroke="#172C51" stroke-width="4.58333" stroke-miterlimit="8" fill-rule="evenodd"/><text fill="#FFFFFF" font-family="STIX Two Text,STIX Two Text_MSFontService,sans-serif" font-weight="700" font-size="110" transform="matrix(1 0 0 1 1655.66 2042)">9</text><path d="M1207.5 1876.5C1207.5 1803.6 1266.6 1744.5 1339.5 1744.5 1412.4 1744.5 1471.5 1803.6 1471.5 1876.5 1471.5 1949.4 1412.4 2008.5 1339.5 2008.5 1266.6 2008.5 1207.5 1949.4 1207.5 1876.5Z" stroke="#172C51" stroke-width="4.58333" stroke-miterlimit="8" fill-rule="evenodd"/><text fill="#FFFFFF" font-family="STIX Two Text,STIX Two Text_MSFontService,sans-serif" font-weight="700" font-size="110" transform="matrix(1 0 0 1 1311.91 1907)">8</text><path d="M1892.5 1139.5C1892.5 1066.6 1951.6 1007.5 2024.5 1007.5 2097.4 1007.5 2156.5 1066.6 2156.5 1139.5 2156.5 1212.4 2097.4 1271.5 2024.5 1271.5 1951.6 1271.5 1892.5 1212.4 1892.5 1139.5Z" stroke="#172C51" stroke-width="4.58333" stroke-miterlimit="8" fill-rule="evenodd"/><text fill="#FFFFFF" font-family="STIX Two Text,STIX Two Text_MSFontService,sans-serif" font-weight="700" font-size="92" transform="matrix(1 0 0 1 1973.75 1185)">10</text><path d="M1812.5 1878.5C1812.5 1805.6 1871.6 1746.5 1944.5 1746.5 2017.4 1746.5 2076.5 1805.6 2076.5 1878.5 2076.5 1951.4 2017.4 2010.5 1944.5 2010.5 1871.6 2010.5 1812.5 1951.4 1812.5 1878.5Z" stroke="#172C51" stroke-width="4.58333" stroke-miterlimit="8" fill-rule="evenodd"/><text fill="#FFFFFF" font-family="STIX Two Text,STIX Two Text_MSFontService,sans-serif" font-weight="700" font-size="92" transform="matrix(1 0 0 1 1894 1925)">12</text><path d="M1205.5 1339.5C1205.5 1266.6 1264.6 1207.5 1337.5 1207.5 1410.4 1207.5 1469.5 1266.6 1469.5 1339.5 1469.5 1412.4 1410.4 1471.5 1337.5 1471.5 1264.6 1471.5 1205.5 1412.4 1205.5 1339.5Z" stroke="#172C51" stroke-width="4.58333" stroke-miterlimit="8" fill-rule="evenodd"/><text fill="#FFFFFF" font-family="STIX Two Text,STIX Two Text_MSFontService,sans-serif" font-weight="700" font-size="110" transform="matrix(1 0 0 1 1309.16 1387)">5</text></g></svg>